<svg width="19" height="18" viewBox="0 0 19 18" fill="none" xmlns="http://www.w3.org/2000/svg">
<path d="M18.1175 9.20249C18.1175 8.60999 18.065 8.0475 17.975 7.5H9.50006V10.8825H14.3525C14.135 11.9925 13.4975 12.93 12.5525 13.5675V15.8175H15.4475C17.1425 14.25 18.1175 11.94 18.1175 9.20249Z" fill="#4285F4"/>
<path d="M9.50023 18.0002C11.9302 18.0002 13.9627 17.1902 15.4477 15.8177L12.5527 13.5678C11.7427 14.1078 10.7152 14.4378 9.50023 14.4378C7.15274 14.4378 5.16525 12.8553 4.45276 10.7178H1.46777V13.0353C2.94527 15.9752 5.98275 18.0002 9.50023 18.0002Z" fill="#34A853"/>
<path d="M4.45248 10.7173C4.26498 10.1773 4.16748 9.59982 4.16748 8.99982C4.16748 8.39982 4.27248 7.82233 4.45248 7.28233V4.96484H1.46749C0.852497 6.17984 0.5 7.54483 0.5 8.99982C0.5 10.4548 0.852497 11.8198 1.46749 13.0348L4.45248 10.7173Z" fill="#FBBC05"/>
<path d="M9.50017 3.56248C10.8277 3.56248 12.0127 4.01998 12.9502 4.91248L15.5151 2.34749C13.9626 0.892496 11.9302 0 9.50017 0C5.98269 0 2.9452 2.02499 1.46771 4.96497L4.4527 7.28246C5.16519 5.14497 7.15268 3.56248 9.50017 3.56248Z" fill="#EA4335"/>
</svg>
