<svg width="15" height="13" viewBox="0 0 15 13" fill="none" xmlns="http://www.w3.org/2000/svg">
<path d="M3.75003 5.75007C4.5773 5.75007 5.24993 5.0773 5.24993 4.25003C5.24993 3.42277 4.5773 2.75 3.75003 2.75C2.92277 2.75 2.25 3.42277 2.25 4.25003C2.25 5.0773 2.92277 5.75007 3.75003 5.75007Z" fill="#999CA0"/>
<path d="M13.1249 0.5H1.87494C0.841547 0.5 0 1.34155 0 2.37508V10.6249C0 11.6585 0.841547 12.5 1.87494 12.5H13.1249C14.1584 12.5 14.9999 11.6585 14.9999 10.6249V2.37508C14.9999 1.34155 14.1584 0.5 13.1249 0.5ZM1.87494 2.00003H13.1249C13.332 2.00003 13.4999 2.16799 13.4999 2.37508V7.69929L11.1307 4.93473C10.8794 4.64003 10.5156 4.48251 10.1249 4.47359C9.73643 4.47578 9.37196 4.64827 9.12298 4.94682L6.33742 8.29021L5.42995 7.38494C4.91703 6.87202 4.08222 6.87202 3.56998 7.38494L1.50003 9.4542V2.37508C1.50003 2.16799 1.66799 2.00003 1.87494 2.00003Z" fill="#999CA0"/>
</svg>
