<svg width="23" height="24" viewBox="0 0 23 24" fill="none" xmlns="http://www.w3.org/2000/svg">
<path fill-rule="evenodd" clip-rule="evenodd" d="M11.0215 2.96433C13.9646 2.96433 14.3128 2.9757 15.4753 3.02864C16.5498 3.07764 17.1334 3.25702 17.5219 3.40795C18.0364 3.60789 18.4034 3.84677 18.7893 4.2322C19.1752 4.61808 19.4141 4.98514 19.6136 5.49964C19.7645 5.88814 19.9439 6.47177 19.9929 7.54627C20.0458 8.70827 20.0572 9.05695 20.0572 12C20.0572 14.9431 20.0458 15.2913 19.9929 16.4538C19.9439 17.5283 19.7645 18.1119 19.6136 18.5004C19.4136 19.0149 19.1748 19.382 18.7893 19.7678C18.4034 20.1537 18.0364 20.3926 17.5219 20.5921C17.1334 20.743 16.5498 20.9224 15.4753 20.9714C14.3133 21.0243 13.9646 21.0357 11.0215 21.0357C8.07844 21.0357 7.72975 21.0243 6.56775 20.9714C5.49325 20.9224 4.90963 20.743 4.52113 20.5921C4.00663 20.3921 3.63956 20.1533 3.25369 19.7678C2.86781 19.382 2.62894 19.0149 2.42944 18.5004C2.2785 18.1119 2.09913 17.5283 2.05013 16.4538C1.99719 15.2918 1.98581 14.9431 1.98581 12C1.98581 9.05695 1.99719 8.7087 2.05013 7.54627C2.09913 6.47177 2.2785 5.88814 2.42944 5.49964C2.62938 4.98514 2.86825 4.61808 3.25369 4.2322C3.63956 3.84633 4.00663 3.60745 4.52113 3.40795C4.90963 3.25702 5.49325 3.07764 6.56775 3.02864C7.73019 2.9757 8.07844 2.96433 11.0215 2.96433ZM11.0215 0.978516C8.02813 0.978516 7.65275 0.991203 6.47719 1.04502C5.30425 1.09839 4.50275 1.28477 3.80188 1.55733C3.07694 1.83908 2.46225 2.21577 1.84975 2.8287C1.23725 3.4412 0.860125 4.05589 0.578375 4.78039C0.305813 5.48127 0.119438 6.28277 0.0660625 7.4557C0.0126875 8.63127 0 9.00664 0 12C0 14.9934 0.0126875 15.3688 0.0665 16.5443C0.119875 17.7173 0.30625 18.5188 0.578813 19.2196C0.860563 19.9446 1.23725 20.5593 1.85019 21.1718C2.46313 21.7847 3.07738 22.1614 3.80231 22.4431C4.50319 22.7157 5.30469 22.9021 6.47763 22.9555C7.65319 23.0093 8.02857 23.022 11.0219 23.022C14.0153 23.022 14.3907 23.0093 15.5663 22.9555C16.7392 22.9021 17.5407 22.7157 18.2416 22.4431C18.9665 22.1614 19.5812 21.7847 20.1937 21.1718C20.8066 20.5588 21.1833 19.9446 21.4651 19.2196C21.7376 18.5188 21.924 17.7173 21.9774 16.5443C22.0312 15.3688 22.0439 14.9934 22.0439 12C22.0439 9.00664 22.0312 8.63127 21.9774 7.4557C21.924 6.28277 21.7376 5.48127 21.4651 4.78039C21.1833 4.05545 20.8066 3.44077 20.1937 2.82827C19.5808 2.21533 18.9665 1.83864 18.2416 1.55689C17.5407 1.28433 16.7392 1.09795 15.5663 1.04458C14.3903 0.991203 14.0149 0.978516 11.0215 0.978516ZM11.0202 6.34072C7.8943 6.34072 5.36074 8.87472 5.36074 12.0002C5.36074 15.1257 7.8943 17.6597 11.0202 17.6597C14.1462 17.6597 16.6797 15.1262 16.6797 12.0002C16.6797 8.87429 14.1462 6.34072 11.0202 6.34072ZM11.0202 15.6739C8.99111 15.6739 7.34655 14.0289 7.34655 12.0002C7.34655 9.97153 8.99155 8.32654 11.0202 8.32654C13.0494 8.32654 14.6939 9.97153 14.6939 12.0002C14.6939 14.0289 13.0494 15.6739 11.0202 15.6739ZM18.227 6.117C18.227 6.84743 17.6348 7.43956 16.9044 7.43956C16.174 7.43956 15.5818 6.84743 15.5818 6.117C15.5818 5.38657 16.174 4.79443 16.9044 4.79443C17.6348 4.79443 18.227 5.38657 18.227 6.117Z" fill="white"/>
</svg>
