<svg width="27" height="22" viewBox="0 0 27 22" fill="none" xmlns="http://www.w3.org/2000/svg">
<path d="M23.3822 5.47684C23.398 5.71553 23.398 5.95421 23.398 6.1951C23.398 13.5349 18.0322 22 8.2205 22V21.9956C5.32211 22 2.48392 21.1355 0.0439453 19.5054C0.465396 19.5582 0.888959 19.5846 1.31358 19.5857C3.71553 19.5879 6.04882 18.7486 7.93848 17.2032C5.65589 17.1581 3.65426 15.6083 2.95502 13.3457C3.75461 13.5063 4.5785 13.4733 5.3633 13.2501C2.87474 12.7265 1.08437 10.4496 1.08437 7.8054C1.08437 7.7812 1.08437 7.7581 1.08437 7.735C1.82587 8.16507 2.65609 8.40376 3.50533 8.43016C1.16148 6.79896 0.438989 3.55196 1.85439 1.01332C4.56265 4.48361 8.55851 6.59327 12.848 6.81656C12.4181 4.88728 13.0054 2.86561 14.3912 1.50939C16.5397 -0.593674 19.9187 -0.485881 21.9382 1.75028C23.1329 1.50499 24.2779 1.04852 25.3257 0.401763C24.9275 1.68758 24.0941 2.77981 22.9808 3.47387C24.0381 3.34408 25.0711 3.0493 26.0439 2.59942C25.3278 3.71695 24.4257 4.69039 23.3822 5.47684Z" fill="white"/>
</svg>
