<svg width="19" height="11" viewBox="0 0 19 11" fill="none" xmlns="http://www.w3.org/2000/svg">
<path d="M10.5903 0H2.04842C0.921788 0 0 0.921788 0 2.04842V8.95158C0 10.0782 0.921788 11 2.04842 11H10.5903C11.7169 11 12.6387 10.0782 12.6387 8.95158V2.04842C12.6387 0.901304 11.7169 0 10.5903 0Z" fill="#999CA0"/>
<path d="M17.2068 1.12674C17.0839 1.14723 16.961 1.20868 16.8586 1.27013L13.6631 3.1137V7.86602L16.8791 9.70959C17.4731 10.0578 18.2106 9.85298 18.5588 9.25894C18.6612 9.07458 18.7227 8.86974 18.7227 8.64442V2.31482C18.7227 1.55691 18.0057 0.942387 17.2068 1.12674Z" fill="#999CA0"/>
</svg>
