<svg width="15" height="15" viewBox="0 0 15 15" fill="none" xmlns="http://www.w3.org/2000/svg">
<path fill-rule="evenodd" clip-rule="evenodd" d="M14.7356 0.264447C15.0881 0.617043 15.0881 1.18871 14.7356 1.54131L8.77635 7.49942L14.7356 13.4587C15.0881 13.8113 15.0881 14.383 14.7356 14.7356C14.383 15.0881 13.8113 15.0881 13.4587 14.7356L7.5 8.77577L1.54131 14.7356C1.18871 15.0881 0.617043 15.0881 0.264447 14.7356C-0.0881488 14.383 -0.0881488 13.8113 0.264447 13.4587L6.22365 7.49942L0.264447 1.54131C-0.088149 1.18871 -0.0881488 0.617043 0.264447 0.264447C0.617043 -0.0881488 1.18871 -0.088149 1.54131 0.264447L7.5 6.22307L13.4587 0.264447C13.8113 -0.088149 14.383 -0.0881488 14.7356 0.264447Z" fill="#999CA0"/>
</svg>
