<svg width="12" height="8" viewBox="0 0 12 8" fill="none" xmlns="http://www.w3.org/2000/svg">
<path fill-rule="evenodd" clip-rule="evenodd" d="M4.39568 6.7388C4.6842 7.02731 4.6842 7.49509 4.39568 7.78361C4.10716 8.07213 3.63938 8.07213 3.35086 7.78361L0.216418 4.64917C0.0397924 4.47254 -0.0287053 4.22873 0.0109228 4C-0.0287052 3.77126 0.0397925 3.52746 0.216418 3.35083L3.35086 0.216388C3.63938 -0.0721299 4.10716 -0.0721299 4.39568 0.216388C4.6842 0.504906 4.6842 0.972686 4.39568 1.2612L2.39568 3.2612L10.5224 3.2612C10.9305 3.2612 11.2612 3.59197 11.2612 4C11.2612 4.40803 10.9305 4.7388 10.5224 4.7388L2.39568 4.7388L4.39568 6.7388Z" fill="#999CA0"/>
</svg>
