<svg width="20" height="20" viewBox="0 0 20 20" fill="none" xmlns="http://www.w3.org/2000/svg">
<path d="M17.8571 2.14286H15.7143V0.714299C15.7143 0.319796 15.3945 0 15 0C14.6055 0 14.2857 0.319796 14.2857 0.714299V2.14286H5.71427V0.714299C5.71427 0.319796 5.39447 0 5.00001 0C4.60555 0 4.28571 0.319796 4.28571 0.714299V2.14286H2.14286C0.959388 2.14286 0 3.10224 0 4.28571V17.8571C0 19.0406 0.959388 20 2.14286 20H17.8571C19.0406 20 20 19.0406 20 17.8571V4.28571C20 3.10224 19.0406 2.14286 17.8571 2.14286ZM18.5714 17.8571C18.5714 18.2516 18.2516 18.5714 17.8571 18.5714H2.14286C1.74835 18.5714 1.42856 18.2516 1.42856 17.8571V8.57142H18.5714V17.8571ZM18.5714 7.14287H1.42856V4.28571C1.42856 3.89121 1.74835 3.57141 2.14286 3.57141H4.28571V4.99997C4.28571 5.39447 4.60551 5.71427 5.00001 5.71427C5.39451 5.71427 5.71431 5.39447 5.71431 4.99997V3.57141H14.2857V4.99997C14.2857 5.39447 14.6055 5.71427 15 5.71427C15.3945 5.71427 15.7143 5.39447 15.7143 4.99997V3.57141H17.8572C18.2517 3.57141 18.5715 3.89121 18.5715 4.28571V7.14287H18.5714Z" fill="#999CA0"/>
</svg>
