<svg width="107" height="15" viewBox="0 0 107 15" fill="none" xmlns="http://www.w3.org/2000/svg">
<path d="M11.4576 11.413H9.30092L10.6488 3.12947H12.8056L11.4576 11.413ZM7.48668 3.12947L5.43066 8.82693L5.18737 7.60002L5.18758 7.60047L4.46192 3.87529C4.46192 3.87529 4.37418 3.12947 3.43889 3.12947H0.0398826L0 3.26972C0 3.26972 1.03942 3.48598 2.25589 4.21652L4.12955 11.4132H6.37658L9.80771 3.12947H7.48668ZM24.4496 11.413H26.4298L24.7033 3.12924H22.9696C22.1691 3.12924 21.9742 3.74655 21.9742 3.74655L18.7576 11.413H21.0058L21.4553 10.1825H24.197L24.4496 11.413ZM22.0764 8.48281L23.2096 5.38291L23.8471 8.48281H22.0764ZM18.9263 5.12144L19.234 3.34262C19.234 3.34262 18.2844 2.98145 17.2944 2.98145C16.2242 2.98145 13.6827 3.4492 13.6827 5.7237C13.6827 7.86369 16.6656 7.89028 16.6656 9.01432C16.6656 10.1384 13.99 9.93698 13.1069 9.22813L12.7864 11.0881C12.7864 11.0881 13.7493 11.5558 15.2207 11.5558C16.6924 11.5558 18.9125 10.7938 18.9125 8.71989C18.9125 6.56614 15.9028 6.36561 15.9028 5.42922C15.9031 4.49261 18.0035 4.61292 18.9263 5.12144Z" fill="#2566AF"/>
<path d="M5.1876 7.59991L4.46192 3.87473C4.46192 3.87473 4.37418 3.12891 3.43889 3.12891H0.0398826L0 3.26916C0 3.26916 1.63369 3.60774 3.20069 4.87626C4.69901 6.08874 5.1876 7.59991 5.1876 7.59991Z" fill="#E6A540"/>
<path d="M57.9866 11.7725V11.4902H57.9123L57.8263 11.684L57.7408 11.4902H57.6662V11.7725H57.7191V11.5599L57.7994 11.7433H57.8542L57.9345 11.5593V11.7725H57.9868H57.9866ZM57.5151 11.7725V11.5386H57.6102V11.4909H57.3672V11.5386H57.4623V11.7725H57.5147H57.5151Z" fill="#F79410"/>
<path d="M49.5394 12.9824H43.1074V1.55371H49.5395L49.5394 12.9824Z" fill="#FF5F00"/>
<path d="M43.5152 7.26841C43.5152 4.95009 44.613 2.88493 46.3226 1.55406C45.0286 0.54515 43.428 -0.00241035 41.78 7.97623e-06C37.7204 7.97623e-06 34.4297 3.25413 34.4297 7.26841C34.4297 11.2826 37.7204 14.5368 41.78 14.5368C43.428 14.5393 45.0286 13.9917 46.3227 12.9827C44.6132 11.6521 43.5152 9.58689 43.5152 7.26841Z" fill="#EB001B"/>
<path d="M58.2158 7.26841C58.2158 11.2826 54.9252 14.5368 50.8656 14.5368C49.2174 14.5392 47.6165 13.9917 46.3223 12.9827C48.0323 11.6518 49.1302 9.58689 49.1302 7.26841C49.1302 4.94997 48.0323 2.88493 46.3223 1.55406C47.6165 0.545189 49.2173 -0.00235784 50.8654 7.63225e-06C54.925 7.63225e-06 58.2158 3.25413 58.2158 7.26841Z" fill="#F79E1B"/>
<path fill-rule="evenodd" clip-rule="evenodd" d="M68.0531 4.05889H66.2158V10.4534H68.0292C69.0077 10.4534 69.6994 10.2386 70.3199 9.7137C71.0357 9.11735 71.489 8.21043 71.489 7.25603C71.489 5.37132 70.0811 4.05889 68.0531 4.05889ZM69.5086 8.87857C69.1031 9.21277 68.6017 9.37975 67.7907 9.37975H67.4567V5.1564H67.7907C68.6017 5.1564 69.079 5.29952 69.5086 5.65735C69.938 6.039 70.2006 6.63582 70.2006 7.25603C70.2004 7.87647 69.938 8.49692 69.5086 8.87857ZM72.0617 10.4537H73.3024V4.05889H72.0617V10.4537ZM76.3564 6.51655C75.5928 6.2303 75.3781 6.06333 75.3781 5.70528C75.3781 5.29976 75.7836 5.01352 76.3087 5.01352C76.6903 5.01352 77.0007 5.15664 77.3108 5.51445L77.9789 4.67956C77.4301 4.20224 76.786 3.9637 76.094 3.9637C74.9488 3.9637 74.0898 4.75112 74.0898 5.80093C74.0898 6.68376 74.4953 7.11337 75.6646 7.54276C76.1658 7.70973 76.4043 7.829 76.5236 7.90056C76.786 8.06777 76.9053 8.30608 76.9053 8.5687C76.9053 9.09374 76.4997 9.47541 75.927 9.47541C75.3543 9.47541 74.8533 9.1653 74.5669 8.61642L73.7797 9.40383C74.3524 10.2388 75.0442 10.6206 75.9986 10.6206C77.2869 10.6206 78.1938 9.76162 78.1938 8.52101C78.1936 7.4948 77.7642 7.04134 76.3564 6.51655ZM78.5755 7.25603C78.5755 9.14097 80.0548 10.5966 81.9634 10.5966C82.4885 10.5966 82.9656 10.5009 83.5145 10.2386V8.75908C83.0133 9.26003 82.5839 9.47486 82.0111 9.47486C80.7705 9.47486 79.8639 8.54439 79.8639 7.25581C79.8639 6.039 80.7943 5.06075 81.9634 5.06075C82.5601 5.06075 83.0133 5.27545 83.5145 5.77661V4.32105C82.9895 4.03456 82.5362 3.91553 81.9873 3.91553C80.1024 3.91577 78.5755 5.41904 78.5755 7.25603Z" fill="white"/>
<path fill-rule="evenodd" clip-rule="evenodd" d="M87.4035 3.91553C85.5183 3.91553 83.9912 5.39495 83.9912 7.20809C83.9912 9.16484 85.4467 10.5964 87.4035 10.5964C89.3119 10.5964 90.8153 9.14075 90.8153 7.25581C90.8156 5.39495 89.3359 3.91553 87.4035 3.91553Z" fill="#DB8135"/>
<path fill-rule="evenodd" clip-rule="evenodd" d="M87.4035 3.91553C85.5183 3.91553 83.9912 5.39495 83.9912 7.20809C83.9912 9.16484 85.4467 10.5964 87.4035 10.5964C89.3119 10.5964 90.8153 9.14075 90.8153 7.25581C90.8156 5.39495 89.3359 3.91553 87.4035 3.91553ZM87.4035 7.25581H90.8153H87.4035Z" fill="#DB8135"/>
<path fill-rule="evenodd" clip-rule="evenodd" d="M87.4035 7.25581H90.8153C90.8153 5.39471 89.3357 3.91553 87.4035 3.91553C85.5183 3.91553 83.9912 5.39495 83.9912 7.20809C83.9912 9.16484 85.4467 10.5964 87.4035 10.5964C89.3119 10.5964 90.8153 9.14075 90.8153 7.25581H87.4035Z" fill="#DB8135"/>
<path fill-rule="evenodd" clip-rule="evenodd" d="M87.4035 7.25581H90.8153C90.8153 5.39471 89.3357 3.91553 87.4035 3.91553C85.5183 3.91553 83.9912 5.39495 83.9912 7.20809C83.9912 9.16484 85.4467 10.5964 87.4035 10.5964C89.3119 10.5964 90.8153 9.14075 90.8153 7.25581H87.4035Z" fill="#DB8137"/>
<path fill-rule="evenodd" clip-rule="evenodd" d="M87.4035 7.25581H90.8153C90.8153 5.39471 89.3357 3.91553 87.4035 3.91553C85.5183 3.91553 83.9912 5.39495 83.9912 7.20809C83.9912 9.16484 85.4467 10.5964 87.4035 10.5964C89.3119 10.5964 90.8153 9.14075 90.8153 7.25581H87.4035Z" fill="#DC8337"/>
<path fill-rule="evenodd" clip-rule="evenodd" d="M87.4035 7.25581H90.8153C90.8153 5.39471 89.3357 3.91553 87.4035 3.91553C85.5183 3.91553 83.9912 5.39495 83.9912 7.20809C83.9912 9.16484 85.4467 10.5964 87.4035 10.5964C89.3119 10.5964 90.8153 9.14075 90.8153 7.25581H87.4035Z" fill="#DC8539"/>
<path fill-rule="evenodd" clip-rule="evenodd" d="M87.4035 7.25581H90.8153C90.8153 5.39471 89.3357 3.91553 87.4035 3.91553C85.5183 3.91553 83.9912 5.39495 83.9912 7.20809C83.9912 9.16484 85.4467 10.5964 87.4035 10.5964C89.3119 10.5964 90.8153 9.14075 90.8153 7.25581H87.4035Z" fill="#DC853A"/>
<path fill-rule="evenodd" clip-rule="evenodd" d="M87.4035 7.25581H90.8153C90.8153 5.39471 89.3357 3.91553 87.4035 3.91553C85.5183 3.91553 83.9912 5.39495 83.9912 7.20809C83.9912 9.16484 85.4467 10.5964 87.4035 10.5964C89.3119 10.5964 90.8153 9.14075 90.8153 7.25581H87.4035Z" fill="#DC853C"/>
<path fill-rule="evenodd" clip-rule="evenodd" d="M87.4035 7.25581H90.8153C90.8153 5.39471 89.3357 3.91553 87.4035 3.91553C85.5183 3.91553 83.9912 5.39495 83.9912 7.20809C83.9912 9.16484 85.4467 10.5964 87.4035 10.5964C89.3119 10.5964 90.8153 9.14075 90.8153 7.25581H87.4035Z" fill="#DD873E"/>
<path fill-rule="evenodd" clip-rule="evenodd" d="M87.4035 7.25581H90.8153C90.8153 5.39471 89.3357 3.91553 87.4035 3.91553C85.5183 3.91553 83.9912 5.39495 83.9912 7.20809C83.9912 9.16484 85.4467 10.5964 87.4035 10.5964C89.3119 10.5964 90.8153 9.14075 90.8153 7.25581H87.4035Z" fill="#DD873E"/>
<path fill-rule="evenodd" clip-rule="evenodd" d="M87.4035 7.25581H90.8153C90.8153 5.39471 89.3357 3.91553 87.4035 3.91553C85.5183 3.91553 83.9912 5.39495 83.9912 7.20809C83.9912 9.16484 85.4467 10.5964 87.4035 10.5964C89.3119 10.5964 90.8153 9.14075 90.8153 7.25581H87.4035Z" fill="#DD883F"/>
<path fill-rule="evenodd" clip-rule="evenodd" d="M87.4035 7.25581H90.8153C90.8153 5.39471 89.3357 3.91553 87.4035 3.91553C85.5183 3.91553 83.9912 5.39495 83.9912 7.20809C83.9912 9.16484 85.4467 10.5964 87.4035 10.5964C89.3119 10.5964 90.8153 9.14075 90.8153 7.25581H87.4035Z" fill="#DD8841"/>
<path fill-rule="evenodd" clip-rule="evenodd" d="M87.4035 7.25581H90.8153C90.8153 5.39471 89.3357 3.91553 87.4035 3.91553C85.5183 3.91553 83.9912 5.39495 83.9912 7.20809C83.9912 9.16484 85.4467 10.5964 87.4035 10.5964C89.3119 10.5964 90.8153 9.14075 90.8153 7.25581H87.4035Z" fill="#DE8A41"/>
<path fill-rule="evenodd" clip-rule="evenodd" d="M87.4035 7.25581H90.8153C90.8153 5.39471 89.3357 3.91553 87.4035 3.91553C85.5183 3.91553 83.9912 5.39495 83.9912 7.20809C83.9912 9.16484 85.4467 10.5964 87.4035 10.5964C89.3119 10.5964 90.8153 9.14075 90.8153 7.25581H87.4035Z" fill="#DE8A43"/>
<path fill-rule="evenodd" clip-rule="evenodd" d="M87.4035 7.25581H90.8153C90.8153 5.39471 89.3357 3.91553 87.4035 3.91553C85.5183 3.91553 83.9912 5.39495 83.9912 7.20809C83.9912 9.16484 85.4467 10.5964 87.4035 10.5964C89.3119 10.5964 90.8153 9.14075 90.8153 7.25581H87.4035Z" fill="#DE8A44"/>
<path fill-rule="evenodd" clip-rule="evenodd" d="M87.4035 7.25581H90.8153C90.8153 5.39471 89.3357 3.91553 87.4035 3.91553C85.5183 3.91553 83.9912 5.39495 83.9912 7.20809C83.9912 9.16484 85.4467 10.5964 87.4035 10.5964C89.3119 10.5964 90.8153 9.14075 90.8153 7.25581H87.4035Z" fill="#DE8C46"/>
<path fill-rule="evenodd" clip-rule="evenodd" d="M87.403 7.25603H90.8149H87.403ZM90.8151 7.25603C90.8151 7.22709 90.8145 7.19814 90.8136 7.16918V7.16804C90.813 7.1396 90.8119 7.1112 90.8104 7.0828V7.08049C90.809 7.05268 90.8073 7.02488 90.8051 6.99711C90.8051 6.99596 90.8051 6.99479 90.8047 6.99365C90.8027 6.96636 90.8005 6.93911 90.7979 6.91189C90.7975 6.91026 90.7975 6.90888 90.7975 6.90725C90.7947 6.88057 90.7916 6.85393 90.7881 6.82736V6.82666C90.7847 6.80131 90.7812 6.77598 90.7775 6.75069C90.7771 6.74816 90.7766 6.74561 90.7766 6.74305C90.7725 6.71804 90.7684 6.69327 90.7638 6.66825L90.7625 6.65991L90.7553 6.61939L90.7459 6.57144L90.7409 6.54852C90.7368 6.52905 90.7329 6.50961 90.7283 6.49039C90.7265 6.48136 90.7237 6.47255 90.722 6.46352L90.7083 6.40934L90.6946 6.35838L90.688 6.33337C90.683 6.31554 90.6774 6.29794 90.6726 6.28033L90.6645 6.25278C90.2421 4.8903 88.9718 3.91553 87.4031 3.91553C86.0224 3.91553 84.8341 4.70944 84.2968 5.84656C84.0978 6.2816 83.9936 6.75401 83.9912 7.23242C83.9938 7.6458 84.0615 8.03558 84.1851 8.39292L84.1956 8.4228L84.2003 8.43531C84.332 8.79247 84.5226 9.125 84.7642 9.41913C85.378 10.1514 86.3127 10.5964 87.4031 10.5964C88.9537 10.5964 90.2366 9.63563 90.6636 8.26416L90.6854 8.19053V8.19028C90.7477 7.97107 90.7877 7.74613 90.8049 7.51889L90.8053 7.51843C90.8071 7.48971 90.8095 7.46076 90.8106 7.43182V7.43158C90.8136 7.37312 90.8151 7.31458 90.8151 7.25603Z" fill="#DF8E47"/>
<path fill-rule="evenodd" clip-rule="evenodd" d="M87.4031 7.25581H90.791C90.791 5.95795 90.0478 4.83448 88.9672 4.27311C88.5022 4.04429 87.9725 3.91553 87.4031 3.91553C86.6701 3.91553 85.9922 4.13948 85.4361 4.51882C84.5776 5.12861 84.0146 6.12609 84.0146 7.25581C84.0146 8.49853 84.696 9.59234 85.7025 10.182C86.1965 10.448 86.7733 10.5964 87.4031 10.5964C88.197 10.5964 88.9202 10.3444 89.4946 9.91499C90.282 9.29244 90.791 8.32971 90.791 7.25581H87.4031Z" fill="#DF8E48"/>
<path fill-rule="evenodd" clip-rule="evenodd" d="M87.4042 7.25581H90.7443C90.7443 5.41858 89.2413 3.91553 87.4042 3.91553C87.3753 3.91553 87.3468 3.91599 87.3183 3.91669H87.3161C85.5193 3.9637 84.0635 5.44822 84.0635 7.25581C84.0627 7.95527 84.2798 8.63762 84.6846 9.20806C85.0894 9.77846 85.6618 10.2086 86.3223 10.4388C86.659 10.5414 87.022 10.5966 87.404 10.5966C87.8704 10.5966 88.3124 10.5092 88.7144 10.3505C89.3179 10.0893 89.8317 9.65709 90.1925 9.1071C90.553 8.55718 90.7449 7.91368 90.7442 7.25603H87.4042V7.25581Z" fill="#DF8E4A"/>
<path fill-rule="evenodd" clip-rule="evenodd" d="M87.4038 7.25659H90.7202C90.7202 5.44323 89.2405 3.93994 87.4038 3.93994C85.5663 3.93994 84.0869 5.44323 84.0869 7.25659C84.0858 7.69243 84.1711 8.12415 84.3374 8.52699C84.5037 8.92983 84.748 9.29585 85.0562 9.60402C85.3644 9.91224 85.7305 10.1565 86.1333 10.3228C86.5361 10.4891 86.9679 10.5742 87.4038 10.5733C87.8395 10.5742 88.2713 10.4889 88.674 10.3226C89.0768 10.1563 89.4427 9.91206 89.751 9.60383C90.059 9.29568 90.3032 8.9297 90.4695 8.52688C90.6359 8.12408 90.7212 7.6924 90.7202 7.25659H87.4038Z" fill="#DF904A"/>
<path fill-rule="evenodd" clip-rule="evenodd" d="M87.4035 7.2538H90.6961C90.6961 5.44042 89.2164 3.98486 87.4035 3.98486C85.5899 3.98486 84.1104 5.44042 84.1104 7.2538C84.1104 9.06741 85.5899 10.5466 87.4035 10.5466C89.2164 10.5466 90.6961 9.06718 90.6961 7.2538H87.4035Z" fill="#E0914C"/>
<path fill-rule="evenodd" clip-rule="evenodd" d="M87.405 7.2551H90.6734C90.6734 5.46559 89.1943 4.01025 87.405 4.01025C85.6153 4.01025 84.1357 5.46559 84.1357 7.2551C84.1357 9.06873 85.6153 10.5241 87.405 10.5241C89.1944 10.5241 90.6734 9.06873 90.6734 7.2551H87.405Z" fill="#E0914E"/>
<path fill-rule="evenodd" clip-rule="evenodd" d="M87.404 7.25591H90.625C90.625 5.49024 89.1934 4.03467 87.404 4.03467C85.6142 4.03467 84.1826 5.49024 84.1826 7.25591C84.1826 9.04543 85.6142 10.5008 87.404 10.5008C89.1936 10.5008 90.625 9.04543 90.625 7.25591H87.404Z" fill="#DF924F"/>
<path fill-rule="evenodd" clip-rule="evenodd" d="M87.4037 7.25721H90.6009C90.6009 5.49154 89.1691 4.06006 87.4037 4.06006C85.6378 4.06006 84.2061 5.49178 84.2061 7.25721C84.2061 9.02266 85.6378 10.4547 87.4037 10.4547C89.1691 10.4547 90.6009 9.02266 90.6009 7.25721H87.4037Z" fill="#E09351"/>
<path fill-rule="evenodd" clip-rule="evenodd" d="M87.4051 7.25442H90.5782C90.5782 5.5126 89.1464 4.10498 87.4051 4.10498C85.663 4.10498 84.2314 5.5126 84.2314 7.25442C84.2314 9.02009 85.663 10.428 87.4051 10.428C89.1468 10.428 90.5782 9.02009 90.5782 7.25442H87.4051Z" fill="#E09552"/>
<path fill-rule="evenodd" clip-rule="evenodd" d="M87.4027 7.25499H90.5284C90.5284 5.53726 89.1442 4.12939 87.4027 4.12939C85.6607 4.12939 84.2529 5.53726 84.2529 7.25499C84.2529 8.99679 85.6607 10.4045 87.4027 10.4045C89.1444 10.4045 90.5284 8.99679 90.5284 7.25499H87.4027Z" fill="#E09554"/>
<path fill-rule="evenodd" clip-rule="evenodd" d="M87.4038 7.25652H90.5055C90.5062 6.84898 90.4265 6.44529 90.2709 6.06863C90.1153 5.69197 89.8868 5.34975 89.5988 5.06156C89.3105 4.77339 88.9682 4.54494 88.5916 4.38935C88.2151 4.23373 87.8114 4.15403 87.4038 4.15479C86.9962 4.15396 86.5925 4.23362 86.2159 4.38922C85.839 4.54479 85.4967 4.77322 85.2087 5.06141C84.9204 5.3496 84.6919 5.69184 84.5364 6.06854C84.3808 6.44524 84.301 6.84895 84.3018 7.25652C84.3018 8.97447 85.6856 10.3824 87.4038 10.3824C89.1212 10.3824 90.5055 8.97447 90.5055 7.25652H87.4038Z" fill="#E09555"/>
<path fill-rule="evenodd" clip-rule="evenodd" d="M87.4036 7.25708H90.4812C90.4812 5.56297 89.0975 4.1792 87.4036 4.1792C85.7092 4.1792 84.3252 5.56297 84.3252 7.25708C84.3252 8.97503 85.7092 10.3352 87.4036 10.3352C87.808 10.3361 88.2087 10.2571 88.5826 10.1028C88.9565 9.94855 89.2962 9.72173 89.5822 9.43578C89.8681 9.14976 90.0947 8.81002 90.249 8.43614C90.4033 8.06226 90.4823 7.66155 90.4812 7.25708H87.4036Z" fill="#E19756"/>
<path fill-rule="evenodd" clip-rule="evenodd" d="M87.403 7.25429H90.4567C90.4567 5.58427 89.0971 4.22412 87.403 4.22412C85.7086 4.22412 84.3486 5.58427 84.3486 7.25429C84.3475 7.65572 84.4256 8.05345 84.5786 8.42456C84.7318 8.79567 84.9566 9.13285 85.2406 9.41669C85.5244 9.70058 85.8616 9.92537 86.2328 10.0786C86.6039 10.2316 87.0015 10.3096 87.403 10.3083C87.8044 10.3096 88.202 10.2314 88.5731 10.0784C88.9443 9.92537 89.2813 9.7004 89.5651 9.41652C89.849 9.1327 90.0739 8.79552 90.2269 8.42445C90.3799 8.05336 90.458 7.65568 90.4567 7.25429H87.403Z" fill="#E19757"/>
<path fill-rule="evenodd" clip-rule="evenodd" d="M87.4043 7.25583H90.4105C90.4105 5.58579 89.0742 4.24951 87.4043 4.24951C85.7338 4.24951 84.374 5.58579 84.374 7.25583C84.374 8.92607 85.734 10.286 87.4043 10.286C89.0744 10.286 90.4105 8.92585 90.4105 7.25583H87.4043Z" fill="#E29959"/>
<path fill-rule="evenodd" clip-rule="evenodd" d="M87.4036 7.2554H90.3858C90.3858 5.60901 89.0495 4.27295 87.4036 4.27295C85.7568 4.27295 84.4209 5.60901 84.4209 7.2554C84.4209 8.90181 85.7572 10.2618 87.4036 10.2618C89.0495 10.2618 90.3858 8.90181 90.3858 7.2554H87.4036Z" fill="#E2995B"/>
<path fill-rule="evenodd" clip-rule="evenodd" d="M87.4032 7.25695H90.3615C90.3615 5.63464 89.0252 4.29834 87.4032 4.29834C85.7805 4.29834 84.4443 5.63464 84.4443 7.25695C84.4443 8.90334 85.7807 10.2156 87.4032 10.2156C89.0253 10.2156 90.3615 8.90334 90.3615 7.25695H87.4032Z" fill="#E29B5B"/>
<path fill-rule="evenodd" clip-rule="evenodd" d="M87.4047 7.25415H90.3395C90.3395 5.65545 89.0269 4.34326 87.4047 4.34326C85.782 4.34326 84.4697 5.65545 84.4697 7.25415C84.4697 8.8767 85.7822 10.1889 87.4047 10.1889C89.0269 10.1889 90.3395 8.87648 90.3395 7.25415H87.4047Z" fill="#E29B5D"/>
<path fill-rule="evenodd" clip-rule="evenodd" d="M87.4039 7.25473H90.2907C90.2915 6.87542 90.2173 6.49969 90.0724 6.14909C89.9276 5.7985 89.715 5.47995 89.4467 5.21173C89.1786 4.9435 88.8601 4.73087 88.5095 4.58603C88.1589 4.44118 87.7831 4.36698 87.4039 4.36768C85.805 4.36768 84.5166 5.65605 84.5166 7.25473C84.5166 8.85343 85.805 10.1658 87.4039 10.1658C89.0023 10.1658 90.2907 8.85343 90.2907 7.25473H87.4039Z" fill="#E39D5F"/>
<path fill-rule="evenodd" clip-rule="evenodd" d="M87.4034 7.25626H90.2662C90.2662 5.68143 88.978 4.39307 87.4034 4.39307C85.8284 4.39307 84.54 5.68143 84.54 7.25626C84.54 8.85494 85.8284 10.1433 87.4034 10.1433C88.978 10.1433 90.2662 8.85494 90.2662 7.25626H87.4034Z" fill="#E39D61"/>
<path fill-rule="evenodd" clip-rule="evenodd" d="M87.403 7.25683H90.2423C90.2423 5.70584 88.9776 4.41748 87.403 4.41748C85.828 4.41748 84.5635 5.70584 84.5635 7.25683C84.5635 8.83166 85.828 10.0962 87.403 10.0962C88.9776 10.0962 90.2423 8.83166 90.2423 7.25683H87.403Z" fill="#E39F63"/>
<path fill-rule="evenodd" clip-rule="evenodd" d="M87.4047 7.25404H90.22C90.22 5.70305 88.9553 4.4624 87.4047 4.4624C85.8534 4.4624 84.5889 5.70305 84.5889 7.25404C84.5889 8.80502 85.8534 10.0698 87.4047 10.0698C88.9553 10.0698 90.22 8.80502 90.22 7.25404H87.4047Z" fill="#E39F63"/>
<path fill-rule="evenodd" clip-rule="evenodd" d="M87.4037 7.25558H90.171C90.171 5.72868 88.9309 4.48779 87.4037 4.48779C85.8764 4.48779 84.6357 5.72844 84.6357 7.25558C84.6357 8.80656 85.8764 10.0472 87.4037 10.0472C88.9309 10.0472 90.171 8.80656 90.171 7.25558H87.4037Z" fill="#E39F64"/>
<path fill-rule="evenodd" clip-rule="evenodd" d="M87.4034 7.25613H90.1473C90.1473 5.7531 88.9305 4.51221 87.4034 4.51221C85.876 4.51221 84.6592 5.7531 84.6592 7.25613C84.6592 8.78327 85.876 10.0241 87.4034 10.0241C88.9305 10.0241 90.1473 8.78327 90.1473 7.25613H87.4034Z" fill="#E4A166"/>
<path fill-rule="evenodd" clip-rule="evenodd" d="M87.403 7.25668H90.1228C90.1228 5.75365 88.906 4.53662 87.403 4.53662C85.8994 4.53662 84.6826 5.75341 84.6826 7.25668C84.6826 8.75995 85.8994 9.97691 87.403 9.97691C88.906 9.97691 90.1228 8.75995 90.1228 7.25668H87.403Z" fill="#E4A367"/>
<path fill-rule="evenodd" clip-rule="evenodd" d="M87.4045 7.25488H90.1005C90.1005 5.7757 88.8837 4.58252 87.4045 4.58252C85.9248 4.58252 84.708 5.77546 84.708 7.25488C84.708 8.75815 85.9248 9.95101 87.4045 9.95101C88.8837 9.95101 90.1005 8.75815 90.1005 7.25488H87.4045Z" fill="#E4A369"/>
<path fill-rule="evenodd" clip-rule="evenodd" d="M87.4035 7.25543H90.0521C90.0521 5.80009 88.8828 4.60693 87.4035 4.60693C85.924 4.60693 84.7549 5.80009 84.7549 7.25543C84.7549 8.73485 85.924 9.92771 87.4035 9.92771C88.8828 9.92771 90.0521 8.73485 90.0521 7.25543H87.4035Z" fill="#E4A36A"/>
<path fill-rule="evenodd" clip-rule="evenodd" d="M87.4032 7.257H90.0276C90.0287 6.91207 89.9614 6.57034 89.8298 6.25148C89.6983 5.93261 89.5051 5.64291 89.2611 5.39899C89.0173 5.15508 88.7275 4.96178 88.4088 4.8302C88.0898 4.69864 87.7481 4.63139 87.4032 4.63234C87.0582 4.6313 86.7165 4.69848 86.3975 4.83002C86.0786 4.96154 85.7888 5.15484 85.5448 5.39875C85.301 5.64269 85.1076 5.93243 84.9761 6.25133C84.8446 6.57025 84.7774 6.91201 84.7783 7.257C84.7783 8.71256 85.9474 9.90544 87.4032 9.90544C88.8583 9.90544 90.0276 8.71256 90.0276 7.257H87.4032Z" fill="#E5A56C"/>
<path fill-rule="evenodd" clip-rule="evenodd" d="M87.4048 7.2573H90.0052C90.0052 5.82583 88.836 4.65674 87.4048 4.65674C85.9728 4.65674 84.8037 5.82583 84.8037 7.2573C84.8037 8.68902 85.9728 9.85811 87.4048 9.85811C88.836 9.85811 90.0052 8.68902 90.0052 7.2573H87.4048Z" fill="#E5A56C"/>
<path fill-rule="evenodd" clip-rule="evenodd" d="M87.4043 7.25452H89.9809C89.9809 5.8469 88.8121 4.70166 87.4043 4.70166C85.9964 4.70166 84.8271 5.8469 84.8271 7.25452C84.8271 8.68623 85.9964 9.83121 87.4043 9.83121C88.8121 9.83121 89.9809 8.68623 89.9809 7.25452H87.4043Z" fill="#E5A76E"/>
<path fill-rule="evenodd" clip-rule="evenodd" d="M87.4033 7.25605H89.9323C89.9323 5.87227 88.811 4.72705 87.4033 4.72705C85.9952 4.72705 84.874 5.87227 84.874 7.25605C84.874 8.66391 85.9954 9.8091 87.4033 9.8091C88.811 9.8091 89.9323 8.66391 89.9323 7.25605H87.4033Z" fill="#E5A770"/>
<path fill-rule="evenodd" clip-rule="evenodd" d="M87.405 7.25661H89.91C89.91 5.87284 88.7887 4.75146 87.405 4.75146C86.0208 4.75146 84.8994 5.87284 84.8994 7.25661C84.8994 8.64061 86.0208 9.76195 87.405 9.76195C88.7889 9.76195 89.91 8.64061 89.91 7.25661H87.405Z" fill="#E6A970"/>
<path fill-rule="evenodd" clip-rule="evenodd" d="M87.4046 7.25718H89.8857C89.8857 5.89725 88.7644 4.77588 87.4046 4.77588C86.0442 4.77588 84.9229 5.89725 84.9229 7.25718C84.9229 8.64118 86.0442 9.7385 87.4046 9.7385C88.7644 9.7385 89.8857 8.64118 89.8857 7.25718H87.4046Z" fill="#E6A972"/>
<path fill-rule="evenodd" clip-rule="evenodd" d="M87.4041 7.25439H89.8616C89.8616 5.91831 88.7639 4.8208 87.4041 4.8208C86.0438 4.8208 84.9463 5.91831 84.9463 7.25439C84.9459 7.57727 85.0092 7.89709 85.1324 8.19549C85.2558 8.49389 85.4369 8.765 85.6652 8.99332C85.8935 9.22162 86.1648 9.40264 86.463 9.52602C86.7614 9.64923 87.0813 9.71251 87.4041 9.71214C87.727 9.71251 88.0469 9.64923 88.3451 9.52583C88.6435 9.40247 88.9145 9.22146 89.1428 8.99316C89.3711 8.76485 89.5523 8.49374 89.6755 8.19538C89.7989 7.89701 89.8622 7.57723 89.8616 7.25439H87.4041Z" fill="#E6AB74"/>
<path fill-rule="evenodd" clip-rule="evenodd" d="M87.4033 7.25592H89.8128C89.8136 6.93926 89.752 6.62554 89.6312 6.3328C89.5104 6.04006 89.3329 5.7741 89.1091 5.55016C88.885 5.32623 88.6192 5.14877 88.3265 5.02795C88.0336 4.90714 87.72 4.84537 87.4033 4.8462C87.0865 4.84528 86.7728 4.90698 86.4799 5.02775C86.1872 5.14852 85.9212 5.32597 85.6971 5.54992C85.4731 5.77385 85.2957 6.03986 85.1749 6.33264C85.054 6.62541 84.9922 6.93919 84.9932 7.25592C84.9932 8.59223 86.0668 9.68966 87.4033 9.68966C88.739 9.68966 89.8128 8.59223 89.8128 7.25592H87.4033Z" fill="#E6AB75"/>
<path fill-rule="evenodd" clip-rule="evenodd" d="M87.4048 7.2565H89.7905C89.7905 5.94404 88.7171 4.87061 87.4048 4.87061C86.0923 4.87061 85.0186 5.94429 85.0186 7.2565C85.0186 8.59278 86.0922 9.64252 87.4048 9.64252C87.7184 9.64363 88.0292 9.58276 88.3191 9.46313C88.609 9.3436 88.8725 9.16788 89.0943 8.94609C89.3159 8.7243 89.4917 8.46083 89.6112 8.17085C89.7307 7.88086 89.7916 7.57012 89.7905 7.2565H87.4048Z" fill="#E7AD77"/>
<path fill-rule="evenodd" clip-rule="evenodd" d="M87.4044 7.258H89.7664C89.7664 5.96966 88.7166 4.896 87.4044 4.896C86.0919 4.896 85.042 5.96966 85.042 7.258C85.042 8.57045 86.0917 9.62021 87.4044 9.62021C87.715 9.62151 88.0227 9.56138 88.31 9.44307C88.5971 9.32481 88.858 9.15085 89.0776 8.93124C89.2972 8.71162 89.4711 8.4507 89.5893 8.16351C89.7075 7.87632 89.7679 7.56858 89.7664 7.258H87.4044Z" fill="#E7AD77"/>
<path fill-rule="evenodd" clip-rule="evenodd" d="M87.4039 7.25449H89.7421C89.7421 5.96613 88.6923 4.93994 87.4039 4.93994C86.1154 4.93994 85.0654 5.96613 85.0654 7.25449C85.0654 8.54308 86.1152 9.5929 87.4039 9.5929C88.6922 9.5929 89.7421 8.54308 89.7421 7.25449H87.4039Z" fill="#E8AF79"/>
<path fill-rule="evenodd" clip-rule="evenodd" d="M87.4033 7.2558H89.6935C89.6935 5.9913 88.6674 4.96533 87.4033 4.96533C86.1385 4.96533 85.1123 5.9913 85.1123 7.2558C85.1123 8.54438 86.1384 9.57042 87.4033 9.57042C88.6674 9.57042 89.6935 8.54438 89.6935 7.2558H87.4033Z" fill="#E8AF7B"/>
<path fill-rule="evenodd" clip-rule="evenodd" d="M87.4028 7.25658H89.6694C89.6694 6.01593 88.6672 4.98975 87.4028 4.98975C86.1381 4.98975 85.1357 6.01593 85.1357 7.25658C85.1357 8.52108 86.1379 9.52344 87.4028 9.52344C88.6672 9.52344 89.6694 8.52132 89.6694 7.25658H87.4028Z" fill="#E8B17B"/>
<path fill-rule="evenodd" clip-rule="evenodd" d="M87.4044 7.25691H89.647C89.6474 6.9623 89.5895 6.67053 89.477 6.39828C89.3644 6.12604 89.1991 5.87869 88.9908 5.67037C88.7825 5.46205 88.5351 5.29686 88.263 5.18426C87.9907 5.07166 87.6989 5.01385 87.4044 5.01416C87.1096 5.01379 86.8179 5.07155 86.5456 5.18413C86.2732 5.29671 86.0259 5.46188 85.8175 5.6702C85.609 5.87852 85.4438 6.12592 85.3313 6.39818C85.2187 6.67045 85.1608 6.96227 85.1611 7.25691C85.1608 7.55157 85.2185 7.84341 85.3312 8.11572C85.4438 8.38802 85.609 8.63541 85.8174 8.84377C86.0259 9.05212 86.2732 9.21732 86.5456 9.32991C86.8179 9.44249 87.1096 9.50018 87.4044 9.49981C87.6989 9.50018 87.9907 9.44234 88.263 9.32971C88.5351 9.21708 88.7825 9.05188 88.9908 8.84354C89.1991 8.63521 89.3644 8.38783 89.477 8.11557C89.5895 7.84332 89.6474 7.55154 89.647 7.25691H87.4044Z" fill="#E8B17D"/>
<path fill-rule="evenodd" clip-rule="evenodd" d="M87.4039 7.25414H89.6226C89.6226 6.03733 88.6207 5.05908 87.4039 5.05908C86.1869 5.05908 85.1846 6.03733 85.1846 7.25414C85.1846 8.47094 86.1868 9.47328 87.4039 9.47328C88.6207 9.47328 89.6226 8.47116 89.6226 7.25414H87.4039Z" fill="#E8B17E"/>
<path fill-rule="evenodd" clip-rule="evenodd" d="M87.4027 7.25567H89.574C89.574 6.06274 88.5955 5.08449 87.4027 5.08449C87.1174 5.0835 86.8346 5.13901 86.5707 5.24776C86.3069 5.35652 86.0671 5.51641 85.8653 5.71821C85.6635 5.92002 85.5036 6.15976 85.3948 6.42363C85.286 6.68749 85.2304 6.97028 85.2315 7.25567C85.2315 8.47248 86.1857 9.45073 87.4027 9.45073C88.5955 9.45073 89.574 8.47248 89.574 7.25567H87.4027Z" fill="#E9B381"/>
<path fill-rule="evenodd" clip-rule="evenodd" d="M87.4044 7.25625H89.5515C89.5526 6.97395 89.498 6.69419 89.3905 6.43314C89.283 6.17208 89.1248 5.9349 88.9252 5.73527C88.7256 5.53563 88.4884 5.3775 88.2274 5.26999C87.9663 5.16248 87.6866 5.10774 87.4044 5.10891C87.1219 5.1077 86.8422 5.16243 86.5812 5.26992C86.3201 5.37741 86.0829 5.53554 85.8833 5.73516C85.6835 5.9348 85.5255 6.172 85.4178 6.43307C85.3103 6.69414 85.2556 6.97391 85.2569 7.25625C85.2556 7.53859 85.3103 7.81838 85.4178 8.07947C85.5253 8.34055 85.6835 8.57775 85.8831 8.77741C86.0829 8.97705 86.3201 9.1352 86.5812 9.24271C86.8422 9.35022 87.1219 9.40498 87.4044 9.40381C87.6866 9.40494 87.9665 9.35018 88.2275 9.24263C88.4884 9.13511 88.7256 8.97696 88.9252 8.7773C89.1248 8.57766 89.283 8.34046 89.3905 8.07939C89.498 7.81833 89.5526 7.53856 89.5515 7.25625H87.4044Z" fill="#E9B381"/>
<path fill-rule="evenodd" clip-rule="evenodd" d="M87.404 7.25777H89.5272C89.5272 6.08868 88.5727 5.13428 87.404 5.13428C86.2346 5.13428 85.2803 6.08868 85.2803 7.25777C85.2803 8.42686 86.2346 9.38125 87.404 9.38125C88.5727 9.38125 89.5272 8.42686 89.5272 7.25777H87.404Z" fill="#E9B583"/>
<path fill-rule="evenodd" clip-rule="evenodd" d="M87.4036 7.25496H89.5032C89.5032 6.10974 88.5484 5.1792 87.4036 5.1792C86.2582 5.1792 85.3037 6.10974 85.3037 7.25496C85.3037 8.42405 86.2582 9.35459 87.4036 9.35459C88.5484 9.35459 89.5032 8.42405 89.5032 7.25496H87.4036Z" fill="#E9B584"/>
<path fill-rule="evenodd" clip-rule="evenodd" d="M87.4027 7.25553H89.4545C89.4545 6.13415 88.5475 5.20361 87.4027 5.20361C86.2573 5.20361 85.3506 6.13415 85.3506 7.25553C85.3506 8.40077 86.2573 9.33131 87.4027 9.33131C88.5475 9.33131 89.4545 8.40077 89.4545 7.25553H87.4027Z" fill="#EAB786"/>
<path fill-rule="evenodd" clip-rule="evenodd" d="M87.4042 7.25609H89.4321C89.4323 6.98972 89.3801 6.72591 89.2782 6.47976C89.1764 6.23361 89.0271 6.00995 88.8388 5.82157C88.6504 5.63322 88.4268 5.48382 88.1805 5.38197C87.9345 5.28013 87.6706 5.22782 87.4042 5.22803C86.2827 5.22803 85.376 6.13472 85.376 7.25609C85.376 8.37747 86.2827 9.28416 87.4042 9.28416C87.6706 9.28438 87.9345 9.23206 88.1805 9.13021C88.4268 9.02836 88.6504 8.87899 88.8388 8.69061C89.0271 8.50226 89.1764 8.2786 89.2782 8.03244C89.3801 7.78629 89.4323 7.52247 89.4321 7.25609H87.4042Z" fill="#EAB788"/>
<path fill-rule="evenodd" clip-rule="evenodd" d="M87.4038 7.25764H89.4076C89.4076 6.16011 88.5013 5.25342 87.4038 5.25342C86.3061 5.25342 85.3994 6.16011 85.3994 7.25764C85.3994 8.37901 86.3061 9.26186 87.4038 9.26186C88.5013 9.26186 89.4076 8.37901 89.4076 7.25764H87.4038Z" fill="#EBB989"/>
<path fill-rule="evenodd" clip-rule="evenodd" d="M87.4034 7.25387H89.3839C89.3839 6.18021 88.501 5.29736 87.4034 5.29736C86.3057 5.29736 85.4229 6.18021 85.4229 7.25387C85.4223 7.51414 85.473 7.77197 85.5723 8.01253C85.6717 8.2531 85.8175 8.47169 86.0016 8.6557C86.1856 8.83973 86.4041 8.98557 86.6448 9.08486C86.8853 9.18414 87.1433 9.23491 87.4034 9.23422C87.6637 9.23487 87.9216 9.18408 88.1621 9.08479C88.4026 8.9855 88.6211 8.83965 88.8052 8.65562C88.9893 8.4716 89.1351 8.25303 89.2344 8.01248C89.3336 7.77191 89.3844 7.51412 89.3839 7.25387H87.4034Z" fill="#EBB98A"/>
<path fill-rule="evenodd" clip-rule="evenodd" d="M87.4045 7.25541H89.3369C89.338 7.00134 89.2888 6.74956 89.192 6.51461C89.0953 6.27967 88.953 6.06619 88.7733 5.88653C88.5937 5.70685 88.3802 5.56452 88.1452 5.46776C87.9103 5.371 87.6585 5.32173 87.4045 5.32277C86.3305 5.32277 85.4717 6.18153 85.4717 7.25541C85.4717 8.32931 86.3305 9.21215 87.4045 9.21215C88.4779 9.21215 89.3369 8.32931 89.3369 7.25541H87.4045Z" fill="#EBBB8C"/>
<path fill-rule="evenodd" clip-rule="evenodd" d="M87.404 7.25596H89.3124C89.3124 6.20615 88.4538 5.34717 87.404 5.34717C86.3539 5.34717 85.4951 6.20591 85.4951 7.25596C85.4951 8.32962 86.3539 9.16497 87.404 9.16497C88.4538 9.16497 89.3124 8.32984 89.3124 7.25596H87.404Z" fill="#EBBB8C"/>
<path fill-rule="evenodd" clip-rule="evenodd" d="M87.4038 7.2575H89.2887C89.2887 6.23154 88.4538 5.37256 87.4038 5.37256C86.3537 5.37256 85.5186 6.2313 85.5186 7.2575C85.5171 7.50547 85.5648 7.75126 85.659 7.98063C85.7534 8.21 85.8921 8.4184 86.0675 8.59373C86.2427 8.76906 86.4512 8.90784 86.6806 9.00203C86.91 9.09622 87.1557 9.14395 87.4038 9.14245C87.6517 9.14395 87.8974 9.09622 88.1268 9.00203C88.3562 8.90784 88.5646 8.76904 88.74 8.59371C88.9153 8.41838 89.0541 8.20999 89.1483 7.98061C89.2424 7.75124 89.2902 7.50545 89.2887 7.2575H87.4038Z" fill="#ECBD8F"/>
<path fill-rule="evenodd" clip-rule="evenodd" d="M87.4032 7.25569H89.264C89.264 6.22974 88.4292 5.41846 87.4032 5.41846C86.3769 5.41846 85.542 6.2295 85.542 7.25569C85.542 8.28188 86.3769 9.117 87.4032 9.117C88.4292 9.117 89.264 8.28188 89.264 7.25569H87.4032Z" fill="#ECBD90"/>
<path fill-rule="evenodd" clip-rule="evenodd" d="M87.4045 7.25526H89.2174C89.2175 7.01713 89.1707 6.7813 89.0795 6.56127C88.9885 6.34124 88.8551 6.1413 88.6866 5.97291C88.5182 5.80449 88.3184 5.67092 88.0984 5.5798C87.8785 5.48868 87.6426 5.44182 87.4045 5.44189C87.1662 5.44177 86.9305 5.48859 86.7103 5.57967C86.4901 5.67075 86.2903 5.80431 86.1218 5.97272C85.9534 6.14113 85.8199 6.34109 85.7287 6.56114C85.6376 6.78121 85.5908 7.01708 85.5908 7.25526C85.5908 8.25736 86.4021 9.09249 87.4045 9.09249C88.4063 9.09249 89.2174 8.25736 89.2174 7.25526H87.4045Z" fill="#ECBF93"/>
<path fill-rule="evenodd" clip-rule="evenodd" d="M87.404 7.25582H89.1936C89.1936 6.27757 88.382 5.46631 87.404 5.46631C86.4017 5.46631 85.6143 6.27757 85.6143 7.25582C85.6143 8.25794 86.4017 9.04536 87.404 9.04536C88.382 9.04536 89.1936 8.25794 89.1936 7.25582H87.404Z" fill="#ECBF93"/>
<path fill-rule="evenodd" clip-rule="evenodd" d="M87.4036 7.25737H89.169C89.169 6.27912 88.3816 5.4917 87.4036 5.4917C86.4251 5.4917 85.6377 6.27889 85.6377 7.25737C85.6377 8.23584 86.4251 9.02304 87.4036 9.02304C87.6356 9.02355 87.8654 8.97825 88.0798 8.88968C88.2942 8.80114 88.4891 8.6711 88.6532 8.50703C88.8173 8.34296 88.9473 8.14811 89.0358 7.93365C89.1244 7.71921 89.1695 7.48937 89.169 7.25737H87.4036Z" fill="#EDC195"/>
<path fill-rule="evenodd" clip-rule="evenodd" d="M87.4032 7.25435H89.1448C89.1448 6.29997 88.3578 5.53662 87.4032 5.53662C86.4485 5.53662 85.6611 6.30019 85.6611 7.25435C85.6611 8.20876 86.4485 8.99617 87.4032 8.99617C88.3576 8.99617 89.1448 8.20876 89.1448 7.25435H87.4032Z" fill="#EDC196"/>
<path fill-rule="evenodd" clip-rule="evenodd" d="M87.4043 7.25612H89.0982C89.0982 6.32558 88.3347 5.56201 87.4043 5.56201C86.4735 5.56201 85.71 6.32558 85.71 7.25612C85.71 8.21052 86.4735 8.97407 87.4043 8.97407C88.3349 8.97407 89.0982 8.21052 89.0982 7.25612H87.4043Z" fill="#EEC397"/>
<path fill-rule="evenodd" clip-rule="evenodd" d="M87.4039 7.25547H89.074C89.074 6.34878 88.3345 5.58545 87.4039 5.58545C86.4731 5.58545 85.7334 6.34902 85.7334 7.25547C85.732 7.47522 85.7743 7.69303 85.8578 7.8963C85.9412 8.09957 86.0642 8.28425 86.2196 8.43962C86.375 8.59499 86.5597 8.71797 86.763 8.80142C86.9663 8.88486 87.1841 8.92712 87.4039 8.92573C87.6237 8.92708 87.8414 8.88481 88.0446 8.80135C88.2479 8.71787 88.4325 8.5949 88.5879 8.43953C88.7432 8.28416 88.8662 8.0995 88.9496 7.89623C89.0331 7.69298 89.0753 7.47519 89.074 7.25547H87.4039Z" fill="#EEC399"/>
<path fill-rule="evenodd" clip-rule="evenodd" d="M87.4036 7.25823H89.0494C89.0494 6.35154 88.31 5.61182 87.4036 5.61182C86.4967 5.61182 85.7568 6.35154 85.7568 7.25823C85.7568 8.16514 86.4967 8.90462 87.4036 8.90462C88.31 8.90462 89.0494 8.16514 89.0494 7.25823H87.4036Z" fill="#EEC59B"/>
<path fill-rule="evenodd" clip-rule="evenodd" d="M87.4051 7.25542H89.0271C89.0271 6.37259 88.2876 5.65674 87.4051 5.65674C86.5219 5.65674 85.7822 6.37259 85.7822 7.25542C85.7822 8.16235 86.5219 8.87796 87.4051 8.87796C88.2876 8.87796 89.0271 8.16235 89.0271 7.25542H87.4051Z" fill="#EEC69D"/>
<path fill-rule="evenodd" clip-rule="evenodd" d="M87.4041 7.25501H88.9787C88.9787 6.39627 88.2868 5.68018 87.4041 5.68018C86.521 5.68018 85.8291 6.39603 85.8291 7.25501C85.8291 8.13785 86.521 8.8537 87.4041 8.8537C88.2868 8.8537 88.9787 8.13785 88.9787 7.25501H87.4041Z" fill="#EEC69F"/>
<path fill-rule="evenodd" clip-rule="evenodd" d="M87.4038 7.25558H88.9542C88.9548 7.05183 88.9148 6.85 88.8371 6.66168C88.7594 6.47334 88.6451 6.30223 88.5011 6.15814C88.357 6.01404 88.1859 5.89981 87.9977 5.82198C87.8094 5.74415 87.6075 5.70426 87.4038 5.70459C87.2 5.70417 86.9981 5.74398 86.8098 5.82178C86.6213 5.89957 86.4501 6.01378 86.306 6.1579C86.1619 6.302 86.0477 6.47314 85.9698 6.66151C85.8919 6.84989 85.8522 7.05175 85.8525 7.25558C85.8522 7.45938 85.8919 7.66126 85.9698 7.84962C86.0477 8.038 86.1619 8.20915 86.306 8.35325C86.4501 8.49735 86.6213 8.61158 86.8098 8.68938C86.9981 8.76715 87.2 8.80699 87.4038 8.80656C87.6075 8.80693 87.8094 8.76704 87.9977 8.68923C88.1861 8.61141 88.357 8.49717 88.5011 8.35307C88.6452 8.20896 88.7594 8.03785 88.8371 7.84951C88.915 7.66117 88.9548 7.45933 88.9542 7.25558H87.4038Z" fill="#EFC89F"/>
<path fill-rule="evenodd" clip-rule="evenodd" d="M87.4052 7.25688H88.9324C88.9324 6.42197 88.2403 5.72998 87.4052 5.72998C86.5699 5.72998 85.8779 6.42197 85.8779 7.25688C85.8772 7.45761 85.9164 7.65648 85.9928 7.84206C86.0694 8.02762 86.1819 8.19622 86.3238 8.33816C86.4659 8.4801 86.6344 8.59255 86.82 8.66907C87.0056 8.74559 87.2045 8.78464 87.4052 8.78399C87.6059 8.78461 87.8048 8.74553 87.9904 8.66899C88.1759 8.59247 88.3445 8.48001 88.4864 8.33809C88.6283 8.19615 88.7408 8.02755 88.8174 7.84201C88.894 7.65644 88.933 7.45759 88.9324 7.25688H87.4052Z" fill="#EFC8A1"/>
<path fill-rule="evenodd" clip-rule="evenodd" d="M87.4028 7.25508H88.906C88.906 6.44404 88.2378 5.77588 87.4028 5.77588C86.5675 5.77588 85.8994 6.44404 85.8994 7.25508C85.8985 7.45274 85.9368 7.64861 86.0121 7.83138C86.0874 8.01417 86.1982 8.18022 86.3379 8.31997C86.4778 8.45975 86.6437 8.57044 86.8265 8.64568C87.0093 8.72092 87.2052 8.75922 87.4028 8.75835C87.6006 8.75915 87.7963 8.72081 87.9791 8.64555C88.1619 8.57027 88.3279 8.45958 88.4675 8.31982C88.6072 8.18007 88.718 8.01402 88.7932 7.83127C88.8685 7.64854 88.9068 7.45271 88.906 7.25508H87.4028Z" fill="#EFCAA3"/>
<path fill-rule="evenodd" clip-rule="evenodd" d="M87.4041 7.25566H88.8592C88.8605 7.06421 88.8237 6.87441 88.7512 6.69728C88.6784 6.52018 88.5713 6.35924 88.4359 6.22385C88.3005 6.08846 88.1397 5.98132 87.9625 5.90861C87.7854 5.8359 87.5956 5.7991 87.4041 5.80032C87.2126 5.79907 87.0228 5.83585 86.8457 5.90854C86.6685 5.98121 86.5075 6.08836 86.3721 6.22374C86.2367 6.35912 86.1294 6.52006 86.0567 6.69721C85.984 6.87434 85.9472 7.06417 85.9483 7.25566C85.9483 8.06692 86.5927 8.73508 87.4041 8.73508C88.2152 8.73508 88.8592 8.06716 88.8592 7.25566H87.4041Z" fill="#EFCAA3"/>
<path fill-rule="evenodd" clip-rule="evenodd" d="M87.4037 7.25618H88.8349C88.8349 6.46876 88.1907 5.82471 87.4037 5.82471C86.6159 5.82471 85.9717 6.46876 85.9717 7.25618C85.9717 8.04361 86.6159 8.6879 87.4037 8.6879C88.1905 8.6879 88.8349 8.04361 88.8349 7.25618H87.4037Z" fill="#F0CCA6"/>
<path fill-rule="evenodd" clip-rule="evenodd" d="M87.4032 7.25772H88.8108C88.8108 6.49439 88.1664 5.8501 87.4032 5.8501C86.6156 5.8501 85.9951 6.49439 85.9951 7.25772C85.9951 8.04513 86.6156 8.66558 87.4032 8.66558C88.1664 8.66558 88.8108 8.04513 88.8108 7.25772H87.4032Z" fill="#F0CCA8"/>
<path fill-rule="evenodd" clip-rule="evenodd" d="M87.4028 7.25495H88.7867C88.7867 6.49162 88.166 5.89502 87.4028 5.89502C86.6393 5.89502 86.0186 6.49162 86.0186 7.25495C86.0189 7.62197 86.1647 7.97389 86.4243 8.2334C86.6838 8.4929 87.0357 8.63878 87.4028 8.63894C87.7699 8.63865 88.1216 8.49273 88.3811 8.23324C88.6405 7.97374 88.7863 7.62189 88.7867 7.25495H87.4028Z" fill="#F1CEAA"/>
<path fill-rule="evenodd" clip-rule="evenodd" d="M87.4041 7.2555H88.7398C88.7402 7.07996 88.7058 6.90611 88.6388 6.74387C88.5718 6.58164 88.4734 6.43422 88.3493 6.31008C88.2251 6.18596 88.0779 6.08755 87.9156 6.02052C87.7534 5.95348 87.5795 5.91912 87.4041 5.91944C86.664 5.91944 86.0674 6.51579 86.0674 7.2555C86.0674 7.99522 86.664 8.61564 87.4041 8.61564C88.1436 8.61564 88.7398 7.99522 88.7398 7.2555H87.4041Z" fill="#F1CEAA"/>
<path fill-rule="evenodd" clip-rule="evenodd" d="M87.4033 7.2563H88.7155C88.7155 6.54067 88.1189 5.94385 87.4033 5.94385C86.6873 5.94385 86.0908 6.54043 86.0908 7.2563C86.0905 7.42878 86.1239 7.59969 86.1898 7.75915C86.2555 7.91863 86.3522 8.06351 86.4742 8.18549C86.5961 8.30746 86.7409 8.40411 86.9004 8.46988C87.0599 8.53565 87.2308 8.56925 87.4033 8.56873C87.5759 8.56922 87.7467 8.53562 87.9061 8.46983C88.0656 8.40404 88.2105 8.30737 88.3324 8.18541C88.4543 8.06344 88.5511 7.91856 88.6167 7.7591C88.6824 7.59966 88.7161 7.42876 88.7155 7.2563H87.4033Z" fill="#F1D0AD"/>
<path fill-rule="evenodd" clip-rule="evenodd" d="M87.4029 7.2576H88.6909C88.6909 6.5656 88.1183 5.96924 87.4029 5.96924C86.6867 5.96924 86.1143 6.5656 86.1143 7.2576C86.1135 7.42703 86.1463 7.59491 86.2108 7.7516C86.2754 7.90826 86.3701 8.05061 86.49 8.17042C86.6099 8.29021 86.7522 8.3851 86.9089 8.4496C87.0656 8.51409 87.2334 8.54693 87.4029 8.54619C87.5721 8.54686 87.7401 8.514 87.8966 8.44947C88.0533 8.38494 88.1956 8.29005 88.3153 8.17025C88.435 8.05044 88.5299 7.90813 88.5945 7.75148C88.6589 7.59484 88.6916 7.42698 88.6909 7.2576H87.4029Z" fill="#F1D0AE"/>
<path fill-rule="evenodd" clip-rule="evenodd" d="M87.4044 7.25481H88.6687C88.6687 6.5628 88.0959 6.01416 87.4044 6.01416C86.7124 6.01416 86.1396 6.5628 86.1396 7.25481C86.1396 7.9468 86.7124 8.51931 87.4044 8.51931C88.0959 8.51931 88.6687 7.94658 88.6687 7.25481H87.4044Z" fill="#F2D2B1"/>
<path fill-rule="evenodd" clip-rule="evenodd" d="M87.4035 7.25538H88.6203C88.6203 6.58746 88.0712 6.03857 87.4035 6.03857C86.7354 6.03857 86.1865 6.58746 86.1865 7.25538C86.1865 7.94736 86.7356 8.49601 87.4035 8.49601C88.0712 8.49601 88.6203 7.94714 88.6203 7.25538H87.4035Z" fill="#F2D2B3"/>
<path fill-rule="evenodd" clip-rule="evenodd" d="M87.4031 7.25594H88.5958C88.5958 6.61165 88.0706 6.06299 87.4031 6.06299C86.735 6.06299 86.21 6.61165 86.21 7.25594C86.21 7.92408 86.7352 8.44888 87.4031 8.44888C88.0708 8.44888 88.5958 7.92384 88.5958 7.25594H87.4031Z" fill="#F3D4B4"/>
<path fill-rule="evenodd" clip-rule="evenodd" d="M87.4048 7.25647H88.5737C88.5731 6.94658 88.4499 6.64952 88.2309 6.43037C88.0116 6.21123 87.7147 6.08788 87.4048 6.0874C86.7602 6.0874 86.2354 6.61242 86.2354 7.25647C86.2354 7.90053 86.7602 8.42557 87.4048 8.42557C87.7147 8.42501 88.0116 8.30165 88.2307 8.08252C88.4497 7.86338 88.5731 7.56635 88.5737 7.25647H87.4048Z" fill="#F3D4B5"/>
<path fill-rule="evenodd" clip-rule="evenodd" d="M87.4044 7.25468H88.549C88.549 6.63447 88.0243 6.1333 87.4044 6.1333C86.7837 6.1333 86.2588 6.63447 86.2588 7.25468C86.2588 7.89897 86.7838 8.3999 87.4044 8.3999C88.0245 8.3999 88.549 7.89873 88.549 7.25468H87.4044Z" fill="#F3D4B7"/>
<path fill-rule="evenodd" clip-rule="evenodd" d="M87.4035 7.25523H88.5008C88.5012 7.11101 88.473 6.96813 88.4181 6.83482C88.3632 6.7015 88.2823 6.58035 88.1804 6.47836C88.0782 6.37638 87.9572 6.29555 87.8238 6.24051C87.6906 6.18549 87.5476 6.15735 87.4035 6.15772C87.2592 6.15729 87.1164 6.18538 86.983 6.24038C86.8496 6.29539 86.7284 6.3762 86.6265 6.47821C86.5243 6.58021 86.4435 6.70135 86.3886 6.8347C86.3334 6.96806 86.3053 7.11098 86.3057 7.25523C86.3057 7.87567 86.783 8.3766 87.4035 8.3766C88.0237 8.3766 88.5008 7.87543 88.5008 7.25523H87.4035Z" fill="#F3D6B8"/>
<path fill-rule="evenodd" clip-rule="evenodd" d="M87.4031 7.2558H88.4765C88.4771 7.11467 88.4497 6.97481 88.396 6.8443C88.3422 6.7138 88.2632 6.59521 88.1635 6.49539C88.0636 6.39558 87.9452 6.31651 87.8145 6.26275C87.6841 6.20898 87.5442 6.18158 87.4031 6.18214C86.8064 6.18214 86.3291 6.65946 86.3291 7.2558C86.3291 7.85216 86.8064 8.32948 87.4031 8.32948C87.5442 8.33003 87.6841 8.30263 87.8145 8.24887C87.9452 8.19511 88.0636 8.11603 88.1635 8.01622C88.2632 7.91641 88.3422 7.79784 88.396 7.66731C88.4497 7.53681 88.4771 7.39694 88.4765 7.2558H87.4031Z" fill="#F4D8BA"/>
<path fill-rule="evenodd" clip-rule="evenodd" d="M87.4046 7.25733H88.4545C88.4545 6.6846 87.9772 6.20752 87.4046 6.20752C86.8322 6.20752 86.3545 6.68482 86.3545 7.25733C86.3545 7.85391 86.8322 8.30715 87.4046 8.30715C87.9772 8.30715 88.4545 7.85369 88.4545 7.25733H87.4046Z" fill="#F4D9BC"/>
<path fill-rule="evenodd" clip-rule="evenodd" d="M87.404 7.25456H88.43C88.43 6.70568 87.9768 6.25244 87.404 6.25244C86.8314 6.25244 86.3779 6.70568 86.3779 7.25456C86.3779 7.82729 86.8314 8.28053 87.404 8.28053C87.9768 8.28053 88.43 7.82705 88.43 7.25456H87.404Z" fill="#F4D9BE"/>
<path fill-rule="evenodd" clip-rule="evenodd" d="M87.4033 7.25511H88.3813C88.3813 6.70622 87.9519 6.27686 87.4033 6.27686C86.8542 6.27686 86.4248 6.70622 86.4248 7.25511C86.4248 7.80397 86.8542 8.25721 87.4033 8.25721C87.9519 8.25721 88.3813 7.80375 88.3813 7.25511H87.4033Z" fill="#F4DBBF"/>
<path fill-rule="evenodd" clip-rule="evenodd" d="M87.4048 7.25568H88.3591C88.3584 7.00277 88.2575 6.76044 88.0788 6.58161C87.8999 6.40278 87.6576 6.30201 87.4048 6.30127C86.8794 6.30127 86.4502 6.73064 86.4502 7.25568C86.4502 7.78069 86.8794 8.21006 87.4048 8.21006C87.6576 8.20934 87.8999 8.10855 88.0788 7.92972C88.2575 7.75089 88.3584 7.50856 88.3591 7.25568H87.4048Z" fill="#F4DBC0"/>
<path fill-rule="evenodd" clip-rule="evenodd" d="M87.4044 7.25722H88.335C88.335 6.75605 87.9054 6.32666 87.4044 6.32666C86.9032 6.32666 86.4736 6.75605 86.4736 7.25722C86.4736 7.78224 86.9032 8.18776 87.4044 8.18776C87.9051 8.18776 88.335 7.78224 88.335 7.25722H87.4044Z" fill="#F5DDC3"/>
<path fill-rule="evenodd" clip-rule="evenodd" d="M87.404 7.25441H88.3105C88.3105 6.7771 87.9048 6.37158 87.404 6.37158C86.9028 6.37158 86.4971 6.7771 86.4971 7.25441C86.4971 7.49488 86.5927 7.7255 86.7627 7.89554C86.9328 8.06558 87.1633 8.1611 87.4038 8.1611C87.6443 8.1611 87.8748 8.06558 88.0449 7.89554C88.2149 7.7255 88.3105 7.49488 88.3105 7.25441H87.404Z" fill="#F5DDC3"/>
<path fill-rule="evenodd" clip-rule="evenodd" d="M87.4033 7.25475H88.2617C88.2617 6.77743 87.8804 6.396 87.4033 6.396C86.926 6.396 86.5439 6.77767 86.5439 7.25475C86.5439 7.73183 86.926 8.13758 87.4033 8.13758C87.8804 8.13758 88.2617 7.73205 88.2617 7.25475H87.4033Z" fill="#F6DFC6"/>
<path fill-rule="evenodd" clip-rule="evenodd" d="M87.4046 7.25627H88.2396C88.2396 6.80282 87.8579 6.42139 87.4046 6.42139C86.951 6.42139 86.5693 6.80306 86.5693 7.25627C86.5693 7.7336 86.951 8.0914 87.4046 8.0914C87.8579 8.0914 88.2396 7.7336 88.2396 7.25627H87.4046Z" fill="#F6DFC7"/>
<path fill-rule="evenodd" clip-rule="evenodd" d="M87.4043 7.25683H88.2153C88.2153 6.82746 87.8575 6.4458 87.4043 6.4458C86.9506 6.4458 86.5928 6.82746 86.5928 7.25683C86.5919 7.36365 86.6122 7.46955 86.6527 7.5684C86.6931 7.66725 86.7528 7.75706 86.8285 7.83258C86.904 7.90808 86.9937 7.9678 87.0927 8.00824C87.1915 8.04869 87.2975 8.06904 87.4043 8.06811C87.511 8.06898 87.6168 8.04857 87.7156 8.00811C87.8144 7.96765 87.9043 7.90791 87.9798 7.83241C88.0553 7.75689 88.1149 7.66712 88.1554 7.56829C88.1959 7.46948 88.2163 7.3636 88.2153 7.25683H87.4043Z" fill="#F6E1CA"/>
<path fill-rule="evenodd" clip-rule="evenodd" d="M87.4038 7.25405H88.1908C88.1908 6.82468 87.833 6.49072 87.4038 6.49072C86.9742 6.49072 86.6162 6.82468 86.6162 7.25405C86.6162 7.68366 86.974 8.04147 87.4038 8.04147C87.8332 8.04147 88.1908 7.68366 88.1908 7.25405H87.4038Z" fill="#F6E1CC"/>
<path fill-rule="evenodd" clip-rule="evenodd" d="M87.4049 7.25486H88.1444C88.1434 7.05901 88.0652 6.87146 87.9268 6.73295C87.7884 6.59445 87.6008 6.51617 87.4049 6.51514C87.209 6.51606 87.0214 6.59428 86.8828 6.7328C86.7442 6.87132 86.666 7.05893 86.665 7.25486C86.665 7.68447 86.9992 8.01843 87.4049 8.01843C87.8102 8.01843 88.1444 7.68447 88.1444 7.25486H87.4049Z" fill="#F7E3CD"/>
<path fill-rule="evenodd" clip-rule="evenodd" d="M87.4025 7.25614H88.1181C88.1181 6.87447 87.8079 6.54053 87.4025 6.54053C86.9968 6.54053 86.6865 6.87447 86.6865 7.25614C86.6865 7.66166 86.9968 7.97199 87.4025 7.97199C87.8079 7.97199 88.1181 7.66166 88.1181 7.25614H87.4025Z" fill="#F7E3CF"/>
<path fill-rule="evenodd" clip-rule="evenodd" d="M87.4039 7.25695H88.0954C88.0952 7.07353 88.0223 6.89766 87.8926 6.76791C87.7631 6.63819 87.5872 6.56518 87.4039 6.56494C87.2235 6.5696 87.052 6.64457 86.926 6.77384C86.8 6.9031 86.7295 7.07645 86.7295 7.25695C86.7295 7.43744 86.8 7.6108 86.926 7.74006C87.052 7.86933 87.2235 7.94427 87.4039 7.94895C87.5872 7.94877 87.7631 7.87578 87.8928 7.74604C88.0225 7.61629 88.0954 7.44038 88.0954 7.25695H87.4039Z" fill="#F7E3D0"/>
<path fill-rule="evenodd" clip-rule="evenodd" d="M87.4036 7.25416H88.0711C88.0711 6.89635 87.7614 6.60986 87.4036 6.60986C87.0452 6.60986 86.7354 6.89635 86.7354 7.25416C86.7352 7.34196 86.7524 7.42892 86.7859 7.51006C86.8193 7.59121 86.8686 7.66493 86.9307 7.72702C86.9927 7.78909 87.0665 7.8383 87.1476 7.87183C87.2288 7.90533 87.3157 7.92248 87.4036 7.9223C87.4913 7.92246 87.5783 7.90528 87.6593 7.87175C87.7405 7.83821 87.8141 7.789 87.8761 7.72693C87.9381 7.66484 87.9873 7.59113 88.0208 7.50999C88.0543 7.42886 88.0715 7.34192 88.0711 7.25416H87.4036Z" fill="#F8E5D1"/>
<path fill-rule="evenodd" clip-rule="evenodd" d="M87.4028 7.2545H88.0231C88.0231 6.92054 87.7606 6.6343 87.4028 6.6343C87.3212 6.63367 87.2403 6.6493 87.1647 6.68023C87.0892 6.71118 87.0205 6.75683 86.9628 6.81455C86.9049 6.87225 86.8592 6.94085 86.8283 7.01639C86.7972 7.09191 86.7817 7.17286 86.7822 7.2545C86.7822 7.61231 87.0446 7.89879 87.4028 7.89879C87.7606 7.89879 88.0231 7.61255 88.0231 7.2545H87.4028Z" fill="#F8E8D4"/>
<path fill-rule="evenodd" clip-rule="evenodd" d="M87.4043 7.2553H88.0004C88.0011 7.17676 87.9863 7.09887 87.9565 7.02615C87.9269 6.95344 87.8831 6.88737 87.8276 6.83182C87.7721 6.77628 87.706 6.73234 87.6333 6.70262C87.5606 6.67289 87.4827 6.65796 87.4043 6.65872C87.3257 6.65794 87.2478 6.67284 87.1751 6.70255C87.1024 6.73226 87.0361 6.77616 86.9806 6.83172C86.9251 6.88728 86.8813 6.95335 86.8515 7.02607C86.8217 7.09882 86.8069 7.17673 86.8076 7.2553C86.8069 7.33385 86.8217 7.4118 86.8515 7.48454C86.8811 7.55729 86.9249 7.62338 86.9806 7.67893C87.0361 7.73449 87.1022 7.77841 87.1749 7.80811C87.2478 7.8378 87.3257 7.85269 87.4043 7.85188C87.4827 7.85262 87.5606 7.83769 87.6333 7.80798C87.706 7.77825 87.7721 7.73432 87.8276 7.67877C87.8831 7.62323 87.9269 7.55716 87.9565 7.48443C87.9863 7.41172 88.0011 7.33382 88.0004 7.2553H87.4043Z" fill="#F8E8D6"/>
<path fill-rule="evenodd" clip-rule="evenodd" d="M87.4038 7.25638H87.9766C87.9766 6.94629 87.7137 6.70752 87.4038 6.70752C87.0936 6.70752 86.8311 6.94605 86.8311 7.25638C86.8311 7.56672 87.0936 7.82912 87.4038 7.82912C87.7137 7.82912 87.9766 7.56672 87.9766 7.25638H87.4038Z" fill="#F8E8D8"/>
<path fill-rule="evenodd" clip-rule="evenodd" d="M87.4036 7.255H87.9522C87.9522 6.96875 87.6894 6.72998 87.4036 6.72998C87.1168 6.72998 86.8545 6.96875 86.8545 7.255C86.8545 7.56509 87.1168 7.80387 87.4036 7.80387C87.6894 7.80387 87.9522 7.56533 87.9522 7.255H87.4036Z" fill="#F9EAD9"/>
<path fill-rule="evenodd" clip-rule="evenodd" d="M87.4045 7.25459H87.9051C87.9051 6.99219 87.6902 6.75342 87.4045 6.75342C87.1177 6.75342 86.9033 6.99195 86.9033 7.25459C86.9033 7.54107 87.1177 7.77961 87.4045 7.77961C87.6902 7.77961 87.9051 7.54107 87.9051 7.25459H87.4045Z" fill="#FAECDC"/>
<path fill-rule="evenodd" clip-rule="evenodd" d="M87.4041 7.25515H87.8814C87.881 7.12868 87.8305 7.00754 87.7412 6.91811C87.6516 6.82869 87.5304 6.77826 87.4041 6.77783C87.1412 6.77783 86.9268 6.99252 86.9268 7.25515C86.9268 7.51777 87.1412 7.73246 87.4041 7.73246C87.5306 7.73209 87.6518 7.68169 87.7412 7.59226C87.8305 7.50283 87.881 7.38163 87.8814 7.25515H87.4041Z" fill="#FAECDD"/>
<path fill-rule="evenodd" clip-rule="evenodd" d="M87.4038 7.257H87.8571C87.8571 7.01847 87.6421 6.82764 87.4038 6.82764C87.165 6.82764 86.9502 7.01847 86.9502 7.257C86.9502 7.5194 87.165 7.71048 87.4038 7.71048C87.4634 7.71048 87.5222 7.69875 87.5774 7.67596C87.6323 7.65316 87.6823 7.61975 87.7245 7.57764C87.7665 7.53554 87.7999 7.48555 87.8227 7.43052C87.8455 7.37552 87.8571 7.31656 87.8571 7.257H87.4038Z" fill="#FAECDF"/>
<path fill-rule="evenodd" clip-rule="evenodd" d="M87.4032 7.25464H87.8326C87.8326 7.03996 87.6419 6.84912 87.4032 6.84912C87.1646 6.84912 86.9736 7.03996 86.9736 7.25464C86.9736 7.49341 87.1646 7.68425 87.4032 7.68425C87.4597 7.68445 87.5157 7.6735 87.5679 7.65196C87.6201 7.63045 87.6676 7.59881 87.7074 7.55889C87.7473 7.51895 87.779 7.47149 87.8004 7.41928C87.8219 7.36705 87.8328 7.31111 87.8326 7.25464H87.4032Z" fill="#FAEEE0"/>
<path fill-rule="evenodd" clip-rule="evenodd" d="M87.4047 7.25521H87.7864C87.7864 7.04052 87.6187 6.87354 87.4047 6.87354C87.1897 6.87354 87.0225 7.04052 87.0225 7.25521C87.0225 7.46989 87.1899 7.66073 87.4047 7.66073C87.6191 7.66073 87.7864 7.46989 87.7864 7.25521H87.4047Z" fill="#FBF0E3"/>
<path fill-rule="evenodd" clip-rule="evenodd" d="M87.4041 7.25675H87.7619C87.7619 7.06591 87.5945 6.89893 87.4041 6.89893C87.2133 6.89893 87.0459 7.06591 87.0459 7.25675C87.0459 7.47144 87.2133 7.61456 87.4041 7.61456C87.5945 7.61456 87.7619 7.47144 87.7619 7.25675H87.4041Z" fill="#FBF1E5"/>
<path fill-rule="evenodd" clip-rule="evenodd" d="M87.4035 7.25689H87.7372C87.7372 7.0899 87.5938 6.94678 87.4035 6.94678C87.2125 6.94678 87.0693 7.0899 87.0693 7.25689C87.0693 7.44795 87.2125 7.59107 87.4035 7.59107C87.5938 7.59107 87.7372 7.44795 87.7372 7.25689H87.4035Z" fill="#FBF1E7"/>
<path fill-rule="evenodd" clip-rule="evenodd" d="M87.4032 7.25453H87.7131C87.7131 7.08754 87.5701 6.96826 87.4032 6.96826C87.2358 6.96826 87.0928 7.08754 87.0928 7.25453C87.0928 7.42174 87.2358 7.56462 87.4032 7.56462C87.5701 7.56462 87.7131 7.4215 87.7131 7.25453H87.4032Z" fill="#FCF3E8"/>
<path fill-rule="evenodd" clip-rule="evenodd" d="M87.4045 7.25507H87.6668C87.6668 7.11193 87.5473 6.99268 87.4045 6.99268C87.2611 6.99268 87.1416 7.11217 87.1416 7.25507C87.1416 7.42229 87.2611 7.54154 87.4045 7.54154C87.5473 7.54154 87.6668 7.42229 87.6668 7.25507H87.4045Z" fill="#FCF3EA"/>
<path fill-rule="evenodd" clip-rule="evenodd" d="M87.4037 7.25562H87.642C87.642 7.13636 87.5467 7.01709 87.4037 7.01709C87.2603 7.01709 87.165 7.13636 87.165 7.25562C87.165 7.39898 87.2603 7.49439 87.4037 7.49439C87.5467 7.49439 87.642 7.39898 87.642 7.25562H87.4037Z" fill="#FCF5ED"/>
<path fill-rule="evenodd" clip-rule="evenodd" d="M87.4052 7.25576H87.6197C87.6197 7.1365 87.5244 7.06494 87.4052 7.06494C87.2857 7.06494 87.1904 7.1365 87.1904 7.25576C87.1904 7.37504 87.2857 7.47045 87.4052 7.47045C87.4335 7.47054 87.4615 7.46504 87.4876 7.4543C87.5136 7.44353 87.5373 7.42773 87.5573 7.40777C87.5771 7.3878 87.593 7.3641 87.6037 7.33802C87.6145 7.31193 87.6198 7.28398 87.6197 7.25576H87.4052Z" fill="#FCF5EF"/>
<path fill-rule="evenodd" clip-rule="evenodd" d="M87.4046 7.25437H87.595C87.595 7.15896 87.4995 7.0874 87.4046 7.0874C87.3091 7.0874 87.2139 7.15919 87.2139 7.25437C87.2139 7.34978 87.3091 7.44543 87.4046 7.44543C87.4995 7.44543 87.595 7.34978 87.595 7.25437H87.4046Z" fill="#FDF8F1"/>
<path fill-rule="evenodd" clip-rule="evenodd" d="M87.4041 7.25592H87.5469C87.5469 7.18436 87.4754 7.11279 87.4041 7.11279C87.3322 7.11279 87.2607 7.18436 87.2607 7.25592C87.2607 7.35133 87.3323 7.42313 87.4041 7.42313C87.4757 7.42313 87.5469 7.35133 87.5469 7.25592H87.4041Z" fill="#FDF8F3"/>
<path fill-rule="evenodd" clip-rule="evenodd" d="M87.4037 7.25648H87.5228C87.5228 7.20877 87.4753 7.13721 87.4037 7.13721C87.3317 7.13721 87.2842 7.20877 87.2842 7.25648C87.2842 7.32804 87.3317 7.37575 87.4037 7.37575C87.4753 7.37575 87.5228 7.32804 87.5228 7.25648H87.4037Z" fill="#FDF8F5"/>
<path fill-rule="evenodd" clip-rule="evenodd" d="M87.4031 7.25662H87.498C87.498 7.20891 87.4504 7.18506 87.4031 7.18506C87.355 7.18506 87.3076 7.20891 87.3076 7.25662C87.3076 7.30433 87.355 7.35203 87.4031 7.35203C87.4504 7.35203 87.498 7.30433 87.498 7.25662H87.4031Z" fill="#FEFBF6"/>
<path fill-rule="evenodd" clip-rule="evenodd" d="M87.405 7.25424H87.4525C87.4525 7.23039 87.4285 7.20654 87.405 7.20654C87.3809 7.20654 87.333 7.23039 87.333 7.25424C87.333 7.30195 87.3809 7.32582 87.405 7.32582C87.4287 7.32582 87.4525 7.30195 87.4525 7.25424H87.405Z" fill="#FFFFFB"/>
<path fill-rule="evenodd" clip-rule="evenodd" d="M87.4039 7.25578H87.4274C87.4274 7.25578 87.4274 7.23193 87.4039 7.23193C87.3799 7.23193 87.3799 7.25578 87.3799 7.25578C87.3799 7.27965 87.3799 7.3035 87.4039 7.3035C87.4274 7.3035 87.4274 7.27965 87.4274 7.25578H87.4039Z" fill="white"/>
<path fill-rule="evenodd" clip-rule="evenodd" d="M93.6299 8.35496L91.9358 4.06006H90.5518L93.2721 10.6215H93.9402L96.7081 4.06006H95.3479L93.6299 8.35496ZM97.2807 10.4548H100.812V9.38093H98.5214V7.66297H100.717V6.56545H98.5214V5.15759H100.812V4.06006H97.2807V10.4548ZM105.751 5.945C105.751 4.75206 104.94 4.06006 103.484 4.06006H101.647V10.4547H102.888V7.90151H103.055L104.773 10.4547H106.3L104.296 7.75816C105.226 7.56755 105.751 6.92325 105.751 5.945ZM103.245 7.0189H102.888V5.0624H103.269C104.057 5.0624 104.462 5.39636 104.462 6.0168C104.462 6.66086 104.057 7.0189 103.245 7.0189ZM106.48 4.62724C106.48 4.67634 106.447 4.70228 106.379 4.70228H106.355V4.55568H106.38C106.448 4.5559 106.48 4.57906 106.48 4.62724ZM106.68 5.0147L106.494 4.78172C106.574 4.76133 106.619 4.70344 106.619 4.62376C106.619 4.51353 106.542 4.45122 106.404 4.45122H106.225V5.0147H106.358V4.79654L106.516 5.0147H106.68ZM106.917 4.73192C106.917 4.4628 106.698 4.24094 106.432 4.24094C106.368 4.24052 106.303 4.25291 106.244 4.27743C106.184 4.30192 106.13 4.33805 106.084 4.38371C106.038 4.42937 106.002 4.48367 105.977 4.54343C105.952 4.60321 105.94 4.66728 105.94 4.73192C105.94 5.00543 106.16 5.2236 106.432 5.2236C106.698 5.22336 106.917 5.00173 106.917 4.73192ZM106.818 4.7333C106.818 4.95424 106.644 5.13537 106.43 5.13537C106.215 5.13537 106.037 4.95519 106.037 4.7333C106.037 4.50889 106.213 4.33056 106.43 4.33056C106.644 4.33056 106.818 4.51168 106.818 4.7333Z" fill="white"/>
</svg>
