<svg width="13" height="13" viewBox="0 0 13 13" fill="none" xmlns="http://www.w3.org/2000/svg">
<path fill-rule="evenodd" clip-rule="evenodd" d="M12.2884 0.711558C12.5705 0.993634 12.5705 1.45097 12.2884 1.73305L7.52108 6.49954L12.2884 11.267C12.5705 11.549 12.5705 12.0064 12.2884 12.2884C12.0064 12.5705 11.549 12.5705 11.267 12.2884L6.5 7.52062L1.73305 12.2884C1.45097 12.5705 0.993634 12.5705 0.711558 12.2884C0.429481 12.0064 0.429481 11.549 0.711558 11.267L5.47892 6.49954L0.711557 1.73305C0.429481 1.45097 0.429481 0.993634 0.711558 0.711558C0.993634 0.429481 1.45097 0.429481 1.73305 0.711557L6.5 5.47846L11.267 0.711557C11.549 0.429481 12.0064 0.429481 12.2884 0.711558Z" fill="#999CA0"/>
</svg>
