<svg width="56" height="56" viewBox="0 0 56 56" fill="none" xmlns="http://www.w3.org/2000/svg">
<mask id="mask0_1898_30899" style="mask-type:alpha" maskUnits="userSpaceOnUse" x="0" y="0" width="56" height="56">
<rect x="0.0996094" y="0.0996094" width="55.8" height="55.8" rx="16" fill="#C4C4C4"/>
</mask>
<g mask="url(#mask0_1898_30899)">
<path d="M28.005 26.4957C30.7069 26.4957 33.0466 25.5266 34.9583 23.6146C36.87 21.7029 37.8391 19.3639 37.8391 16.6616C37.8391 13.9602 36.87 11.6209 34.958 9.70857C33.046 7.7972 30.7066 6.82812 28.005 6.82812C25.3027 6.82812 22.9637 7.7972 21.052 9.70889C19.1403 11.6206 18.1709 13.9599 18.1709 16.6616C18.1709 19.3639 19.1403 21.7032 21.0523 23.6149C22.9643 25.5263 25.3036 26.4957 28.005 26.4957Z" fill="#1A1B1C"/>
<path d="M45.2118 38.2243C45.1567 37.4287 45.0451 36.5609 44.881 35.6444C44.7153 34.7211 44.5019 33.8483 44.2465 33.0506C43.9826 32.226 43.6238 31.4118 43.1802 30.6314C42.7198 29.8215 42.179 29.1163 41.5722 28.536C40.9377 27.9289 40.1608 27.4407 39.2624 27.0847C38.3672 26.7305 37.3751 26.5511 36.3138 26.5511C35.897 26.5511 35.4939 26.7221 34.7155 27.2289C34.2364 27.5414 33.676 27.9027 33.0505 28.3024C32.5156 28.6431 31.7911 28.9624 30.8961 29.2515C30.023 29.534 29.1365 29.6773 28.2615 29.6773C27.3865 29.6773 26.5002 29.534 25.6262 29.2515C24.7322 28.9627 24.0076 28.6434 23.4734 28.3027C22.8538 27.9067 22.2931 27.5454 21.8069 27.2286C21.0294 26.7218 20.626 26.5508 20.2092 26.5508C19.1476 26.5508 18.1558 26.7305 17.2608 27.085C16.3631 27.4404 15.5859 27.9285 14.9507 28.5363C14.3442 29.1169 13.8032 29.8219 13.3434 30.6314C12.9001 31.4118 12.5413 32.2257 12.2771 33.0509C12.022 33.8486 11.8086 34.7211 11.6429 35.6444C11.4787 36.5596 11.3672 37.4278 11.3121 38.2252C11.2579 39.0065 11.2305 39.8173 11.2305 40.6362C11.2305 42.7675 11.908 44.4929 13.244 45.7654C14.5635 47.0211 16.3095 47.6581 18.4327 47.6581H38.0921C40.2153 47.6581 41.9607 47.0214 43.2805 45.7654C44.6168 44.4939 45.2943 42.7681 45.2943 40.6359C45.294 39.8132 45.2663 39.0018 45.2118 38.2243Z" fill="#1A1B1C"/>
</g>
</svg>
