<svg width="14" height="14" viewBox="0 0 14 14" fill="none" xmlns="http://www.w3.org/2000/svg">
<g clip-path="url(#clip0_1898_30221)">
<path d="M10.9375 5.25H10.5V3.5C10.5 1.56975 8.93025 0 7 0C5.06975 0 3.5 1.56975 3.5 3.5V5.25H3.0625C2.33917 5.25 1.75 5.83858 1.75 6.5625V12.6875C1.75 13.4114 2.33917 14 3.0625 14H10.9375C11.6608 14 12.25 13.4114 12.25 12.6875V6.5625C12.25 5.83858 11.6608 5.25 10.9375 5.25ZM4.66667 3.5C4.66667 2.21317 5.71317 1.16667 7 1.16667C8.28683 1.16667 9.33333 2.21317 9.33333 3.5V5.25H4.66667V3.5ZM7.58333 9.7545V11.0833C7.58333 11.4053 7.32258 11.6667 7 11.6667C6.67742 11.6667 6.41667 11.4053 6.41667 11.0833V9.7545C6.06958 9.55208 5.83333 9.17992 5.83333 8.75C5.83333 8.10658 6.35658 7.58333 7 7.58333C7.64342 7.58333 8.16667 8.10658 8.16667 8.75C8.16667 9.17992 7.93042 9.55208 7.58333 9.7545Z" fill="#999CA0"/>
</g>
<defs>
<clipPath id="clip0_1898_30221">
<rect width="14" height="14" fill="white"/>
</clipPath>
</defs>
</svg>
