<svg width="28" height="28" viewBox="0 0 28 28" fill="none" xmlns="http://www.w3.org/2000/svg">
<rect opacity="0.3" width="28" height="28" rx="14" transform="matrix(-1 0 0 1 28 0)" fill="white"/>
<path fill-rule="evenodd" clip-rule="evenodd" d="M14 7C13.3557 7 12.8333 7.52234 12.8333 8.16667V12.834H8.16667C7.52233 12.834 7 13.3563 7 14.0007C7 14.645 7.52233 15.1673 8.16667 15.1673H12.8333V19.8333C12.8333 20.4777 13.3557 21 14 21C14.6443 21 15.1667 20.4777 15.1667 19.8333V15.1673H19.8333C20.4777 15.1673 21 14.645 21 14.0007C21 13.3563 20.4777 12.834 19.8333 12.834H15.1667V8.16667C15.1667 7.52233 14.6443 7 14 7Z" fill="#101011"/>
</svg>
