<svg width="17" height="13" viewBox="0 0 17 13" fill="none" xmlns="http://www.w3.org/2000/svg">
<path d="M5.28792 7.4179C5.50132 7.1731 5.32748 6.79088 5.00272 6.79088H4.03037C4.02404 6.69467 4.02049 6.59772 4.02049 6.49995C4.02049 4.0773 5.99142 2.10637 8.41404 2.10637C9.57826 2.10637 10.638 2.56169 11.425 3.30341L12.7961 1.69939C11.5958 0.601413 10.0512 0 8.41404 0C6.67785 0 5.04558 0.676129 3.8179 1.90378C2.59025 3.13146 1.91412 4.76373 1.91412 6.49992C1.91412 6.59727 1.91655 6.69422 1.92079 6.79085H1.10177C0.777004 6.79085 0.603139 7.17307 0.816568 7.41787L2.66415 9.53715L3.05223 9.98229L4.44555 8.38407L5.28792 7.4179Z" fill="#999CA0"/>
<path d="M16.0114 6.18161L14.6333 4.60091L13.7757 3.61719L12.5513 5.02171L11.5401 6.18161C11.3267 6.4264 11.5005 6.80863 11.8253 6.80863H12.7965C12.6376 9.08784 10.7328 10.8937 8.41392 10.8937C7.40168 10.8937 6.46841 10.5494 5.72471 9.97203L4.35352 11.5762C5.50222 12.4987 6.91944 13 8.41395 13C10.1501 13 11.7824 12.3239 13.0101 11.0963C14.1648 9.94159 14.8313 8.42897 14.9065 6.80866H15.7262C16.051 6.80863 16.2248 6.4264 16.0114 6.18161Z" fill="#999CA0"/>
</svg>
