<svg width="38" height="30" viewBox="0 0 38 30" fill="none" xmlns="http://www.w3.org/2000/svg">
<path d="M31.6609 9.96824C29.9046 2.97181 22.8092 -1.27615 15.8128 0.480116C10.3453 1.85264 6.37522 6.57815 5.96617 12.2004C2.08399 12.8406 -0.544177 16.5067 0.0960383 20.3889C0.665159 23.8402 3.6557 26.3678 7.15354 26.3539H13.0904V23.9791H7.15354C4.53049 23.9791 2.40406 21.8527 2.40406 19.2297C2.40406 16.6066 4.53049 14.4802 7.15354 14.4802C7.80934 14.4802 8.34091 13.9486 8.34091 13.2928C8.33497 7.39091 13.1147 2.60165 19.0166 2.59579C24.1255 2.59067 28.5235 6.2025 29.5117 11.2149C29.6093 11.7154 30.0155 12.0977 30.521 12.1648C33.7671 12.6271 36.0238 15.6333 35.5616 18.8793C35.1465 21.7941 32.6578 23.9644 29.7136 23.9791H24.9641V26.3539H29.7136C34.3039 26.34 38.0139 22.6075 37.9999 18.0171C37.9883 14.196 35.3729 10.875 31.6609 9.96824Z" fill="#999CA0"/>
<path d="M18.1841 14.8243L13.4346 19.5738L15.1088 21.248L17.8397 18.5289V29.9158H20.2145V18.5289L22.9335 21.248L24.6077 19.5738L19.8582 14.8243C19.3951 14.3639 18.6472 14.3639 18.1841 14.8243Z" fill="#999CA0"/>
</svg>
